<svg width="40" height="40" viewBox="0 0 40 40" fill="none" xmlns="http://www.w3.org/2000/svg">
<path fill-rule="evenodd" clip-rule="evenodd" d="M20 0.487793H29.7561V10.2439V20H20H10.2439V29.7561H0.487793V20V10.2439H10.2439H20V10.0813H10.2439V0.487793H20Z" fill="#D50E50"/>
<path fill-rule="evenodd" clip-rule="evenodd" d="M9.7561 0H30.2439V20.4878H10.7317V30.2439H0V9.7561H9.7561V0ZM10.7317 9.5935H20.4878V10.7317H0.97561V29.2683H9.7561V19.5122H29.2683V0.97561H10.7317V9.5935Z" fill="black"/>
<path d="M11.8699 3.73984H15.122V6.99187H11.8699V3.73984Z" fill="white"/>
<path fill-rule="evenodd" clip-rule="evenodd" d="M11.3821 3.25201H15.6098V7.47966H11.3821V3.25201ZM12.3578 4.22762V6.50405H14.6342V4.22762H12.3578Z" fill="black"/>
<path fill-rule="evenodd" clip-rule="evenodd" d="M39.5122 10.2439H29.7561V20H20H10.2439V29.7561V39.5122H20H29.7561V29.9187H20V29.7561H29.7561H39.5122V20V10.2439Z" fill="#FBAD18"/>
<path fill-rule="evenodd" clip-rule="evenodd" d="M29.2683 9.7561H40V30.2439H30.2439V40H9.7561V19.5122H29.2683V9.7561ZM29.2683 30.4065V39.0244H10.7317V20.4878H30.2439V10.7317H39.0244V29.2683H19.5122V30.4065H29.2683Z" fill="black"/>
<path d="M24.8781 33.0081H28.1301V36.2601H24.8781V33.0081Z" fill="white"/>
<path fill-rule="evenodd" clip-rule="evenodd" d="M24.3903 32.5203H28.6179V36.748H24.3903V32.5203ZM25.3659 33.4959V35.7724H27.6423V33.4959H25.3659Z" fill="black"/>
</svg>
