<svg width="1248" height="2972" viewBox="0 0 1248 2972" fill="none" xmlns="http://www.w3.org/2000/svg">
<path fill-rule="evenodd" clip-rule="evenodd" d="M1083.08 36.399L1056.85 56.4184L1082.77 71.5223L1058.92 89.7218L1087.43 106.336L1113.35 121.44L1139.27 136.544L1163.12 118.344L1165.51 116.524L1186.97 100.145L1189.36 98.3249L1213.21 80.1255L1237.06 61.926L1208.54 45.3117L1184.69 63.5112L1182.31 65.3311L1160.84 81.7107L1158.46 83.5306L1137 99.9102L1113.67 86.3167L1137.52 68.1172L1111.6 53.0133L1109 51.5029L1083.08 36.399ZM1109.21 54.8332L1087.75 71.2128L1111.07 84.8063L1132.54 68.4267L1109.21 54.8332ZM1085.36 73.0327L1063.9 89.4123L1087.23 103.006L1108.69 86.6262L1085.36 73.0327ZM1085.15 69.7024L1061.83 56.1089L1083.29 39.7293L1106.62 53.3228L1085.15 69.7024ZM1111.28 88.1366L1089.82 104.516L1113.15 118.11L1134.61 101.73L1111.28 88.1366ZM1115.74 119.62L1137.2 103.24L1160.53 116.834L1139.07 133.214L1115.74 119.62ZM1208.23 80.435L1184.9 66.8415L1163.44 83.2211L1186.77 96.8146L1208.23 80.435ZM1210.61 78.6151L1232.08 62.2355L1208.75 48.642L1187.29 65.0216L1210.61 78.6151ZM1184.38 98.6345L1162.92 115.014L1139.59 101.421L1161.05 85.041L1184.38 98.6345Z" fill="black" fill-opacity="0.2"/>
<path fill-rule="evenodd" clip-rule="evenodd" d="M1075.25 51.0947L1083.6 44.7248L1092.67 50.0112L1084.33 56.381L1075.25 51.0947ZM1080.23 50.7851L1084.12 53.0507L1087.7 50.3208L1083.81 48.0552L1080.23 50.7851Z" fill="black" fill-opacity="0.2"/>
<path fill-rule="evenodd" clip-rule="evenodd" d="M162.083 1341.4L135.849 1361.42L161.77 1376.52L137.921 1394.72L166.433 1411.34L192.354 1426.44L218.274 1441.54L242.123 1423.34L244.508 1421.52L265.972 1405.14L268.357 1403.32L292.206 1385.13L316.055 1366.93L287.543 1350.31L263.694 1368.51L261.309 1370.33L239.845 1386.71L237.46 1388.53L215.996 1404.91L192.667 1391.32L216.516 1373.12L190.596 1358.01L188.004 1356.5L162.083 1341.4ZM188.211 1359.83L166.747 1376.21L190.075 1389.81L211.539 1373.43L188.211 1359.83ZM164.362 1378.03L142.897 1394.41L166.226 1408.01L187.69 1391.63L164.362 1378.03ZM164.154 1374.7L140.826 1361.11L162.29 1344.73L185.619 1358.32L164.154 1374.7ZM190.282 1393.14L168.818 1409.52L192.146 1423.11L213.611 1406.73L190.282 1393.14ZM194.738 1424.62L216.203 1408.24L239.531 1421.83L218.067 1438.21L194.738 1424.62ZM287.229 1385.44L263.901 1371.84L242.437 1388.22L265.765 1401.81L287.229 1385.44ZM289.614 1383.62L311.078 1367.24L287.75 1353.64L266.286 1370.02L289.614 1383.62ZM263.38 1403.63L241.916 1420.01L218.588 1406.42L240.052 1390.04L263.38 1403.63Z" fill="black" fill-opacity="0.2"/>
<path fill-rule="evenodd" clip-rule="evenodd" d="M154.254 1356.09L162.601 1349.72L171.673 1355.01L163.326 1361.38L154.254 1356.09ZM159.231 1355.79L163.119 1358.05L166.696 1355.32L162.808 1353.06L159.231 1355.79Z" fill="black" fill-opacity="0.2"/>
<path fill-rule="evenodd" clip-rule="evenodd" d="M402.083 2316.4L375.849 2336.42L401.77 2351.52L377.921 2369.72L406.433 2386.34L432.354 2401.44L458.274 2416.54L482.123 2398.34L484.508 2396.52L505.972 2380.14L508.357 2378.32L532.206 2360.13L556.055 2341.93L527.543 2325.31L503.694 2343.51L501.309 2345.33L479.845 2361.71L477.46 2363.53L455.996 2379.91L432.667 2366.32L456.516 2348.12L430.596 2333.01L428.004 2331.5L402.083 2316.4ZM428.211 2334.83L406.747 2351.21L430.075 2364.81L451.539 2348.43L428.211 2334.83ZM404.362 2353.03L382.897 2369.41L406.226 2383.01L427.69 2366.63L404.362 2353.03ZM404.154 2349.7L380.826 2336.11L402.29 2319.73L425.619 2333.32L404.154 2349.7ZM430.282 2368.14L408.818 2384.52L432.146 2398.11L453.611 2381.73L430.282 2368.14ZM434.738 2399.62L456.203 2383.24L479.531 2396.83L458.067 2413.21L434.738 2399.62ZM527.229 2360.44L503.901 2346.84L482.437 2363.22L505.765 2376.81L527.229 2360.44ZM529.614 2358.62L551.078 2342.24L527.75 2328.64L506.286 2345.02L529.614 2358.62ZM503.38 2378.63L481.916 2395.01L458.588 2381.42L480.052 2365.04L503.38 2378.63Z" fill="black" fill-opacity="0.2"/>
<path fill-rule="evenodd" clip-rule="evenodd" d="M394.254 2331.09L402.601 2324.72L411.673 2330.01L403.326 2336.38L394.254 2331.09ZM399.231 2330.79L403.119 2333.05L406.696 2330.32L402.808 2328.06L399.231 2330.79Z" fill="black" fill-opacity="0.2"/>
<path fill-rule="evenodd" clip-rule="evenodd" d="M759.083 2561.4L732.849 2581.42L758.77 2596.52L734.921 2614.72L763.433 2631.34L789.354 2646.44L815.274 2661.54L839.123 2643.34L841.508 2641.52L862.972 2625.14L865.357 2623.32L889.206 2605.13L913.055 2586.93L884.543 2570.31L860.694 2588.51L858.309 2590.33L836.845 2606.71L834.46 2608.53L812.996 2624.91L789.667 2611.32L813.516 2593.12L787.596 2578.01L785.004 2576.5L759.083 2561.4ZM785.211 2579.83L763.747 2596.21L787.075 2609.81L808.539 2593.43L785.211 2579.83ZM761.362 2598.03L739.897 2614.41L763.226 2628.01L784.69 2611.63L761.362 2598.03ZM761.154 2594.7L737.826 2581.11L759.29 2564.73L782.619 2578.32L761.154 2594.7ZM787.282 2613.14L765.818 2629.52L789.146 2643.11L810.611 2626.73L787.282 2613.14ZM791.738 2644.62L813.203 2628.24L836.531 2641.83L815.067 2658.21L791.738 2644.62ZM884.229 2605.44L860.901 2591.84L839.437 2608.22L862.765 2621.81L884.229 2605.44ZM886.614 2603.62L908.078 2587.24L884.75 2573.64L863.286 2590.02L886.614 2603.62ZM860.38 2623.63L838.916 2640.01L815.588 2626.42L837.052 2610.04L860.38 2623.63Z" fill="black" fill-opacity="0.2"/>
<path fill-rule="evenodd" clip-rule="evenodd" d="M751.254 2576.09L759.601 2569.72L768.673 2575.01L760.326 2581.38L751.254 2576.09ZM756.231 2575.79L760.119 2578.05L763.696 2575.32L759.808 2573.06L756.231 2575.79Z" fill="black" fill-opacity="0.2"/>
<path fill-rule="evenodd" clip-rule="evenodd" d="M1247.35 496.695L1218.84 480.093L1194.99 498.303L1169.07 483.209L1142.84 503.24L1119 521.449L1147.52 538.052L1171.36 519.842L1197.29 534.935L1221.13 516.726L1223.51 514.905L1247.35 496.695ZM1218.54 515.217L1195.2 501.633L1173.75 518.021L1197.08 531.605L1218.54 515.217ZM1192.61 500.123L1169.28 486.54L1147.82 502.928L1171.15 516.512L1192.61 500.123ZM1197.59 499.812L1219.04 483.423L1242.38 497.007L1220.92 513.396L1197.59 499.812ZM1168.77 518.333L1145.43 504.749L1123.98 521.138L1147.31 534.721L1168.77 518.333Z" fill="black" fill-opacity="0.2"/>
<path fill-rule="evenodd" clip-rule="evenodd" d="M1225.84 492.192L1234.91 497.474L1226.57 503.848L1217.49 498.565L1225.84 492.192ZM1226.05 495.522L1222.47 498.254L1226.36 500.518L1229.94 497.786L1226.05 495.522Z" fill="black" fill-opacity="0.2"/>
<path fill-rule="evenodd" clip-rule="evenodd" d="M535.355 2902.7L506.835 2886.09L482.994 2904.3L457.067 2889.21L430.841 2909.24L407 2927.45L435.52 2944.05L459.361 2925.84L485.288 2940.94L509.129 2922.73L511.513 2920.9L535.355 2902.7ZM506.537 2921.22L483.202 2907.63L461.745 2924.02L485.079 2937.61L506.537 2921.22ZM480.61 2906.12L457.276 2892.54L435.818 2908.93L459.152 2922.51L480.61 2906.12ZM485.587 2905.81L507.044 2889.42L530.378 2903.01L508.921 2919.4L485.587 2905.81ZM456.768 2924.33L433.434 2910.75L411.977 2927.14L435.311 2940.72L456.768 2924.33Z" fill="black" fill-opacity="0.2"/>
<path fill-rule="evenodd" clip-rule="evenodd" d="M513.838 2898.19L522.913 2903.47L514.568 2909.85L505.494 2904.57L513.838 2898.19ZM514.047 2901.52L510.471 2904.25L514.36 2906.52L517.936 2903.79L514.047 2901.52Z" fill="black" fill-opacity="0.2"/>
<path fill-rule="evenodd" clip-rule="evenodd" d="M1169.35 2914.7L1140.84 2898.09L1116.99 2916.3L1091.07 2901.21L1064.84 2921.24L1041 2939.45L1069.52 2956.05L1093.36 2937.84L1119.29 2952.94L1143.13 2934.73L1145.51 2932.9L1169.35 2914.7ZM1140.54 2933.22L1117.2 2919.63L1095.75 2936.02L1119.08 2949.61L1140.54 2933.22ZM1114.61 2918.12L1091.28 2904.54L1069.82 2920.93L1093.15 2934.51L1114.61 2918.12ZM1119.59 2917.81L1141.04 2901.42L1164.38 2915.01L1142.92 2931.4L1119.59 2917.81ZM1090.77 2936.33L1067.43 2922.75L1045.98 2939.14L1069.31 2952.72L1090.77 2936.33Z" fill="black" fill-opacity="0.2"/>
<path fill-rule="evenodd" clip-rule="evenodd" d="M1147.84 2910.19L1156.91 2915.47L1148.57 2921.85L1139.49 2916.57L1147.84 2910.19ZM1148.05 2913.52L1144.47 2916.25L1148.36 2918.52L1151.94 2915.79L1148.05 2913.52Z" fill="black" fill-opacity="0.2"/>
<path fill-rule="evenodd" clip-rule="evenodd" d="M658 168.714L686.579 185.214L710.355 166.919L736.336 181.919L760.112 163.624L786.265 143.5L757.686 127L733.91 145.295L707.93 130.295L684.154 148.59L681.776 150.419L658 168.714ZM684.374 151.919L662.976 168.385L686.358 181.885L707.757 165.419L684.374 151.919ZM686.752 150.09L710.134 163.59L731.533 147.124L708.15 133.624L686.752 150.09ZM712.732 165.09L736.115 178.59L757.514 162.124L734.131 148.624L712.732 165.09ZM736.509 146.795L759.891 160.295L781.29 143.83L757.907 130.33L736.509 146.795Z" fill="black" fill-opacity="0.2"/>
<path fill-rule="evenodd" clip-rule="evenodd" d="M679.532 173.14L670.439 167.89L678.761 161.487L687.854 166.737L679.532 173.14ZM679.312 169.811L682.878 167.067L678.981 164.817L675.415 167.561L679.312 169.811Z" fill="black" fill-opacity="0.2"/>
<path fill-rule="evenodd" clip-rule="evenodd" d="M864 2220.71L892.579 2237.21L916.355 2218.92L942.336 2233.92L966.112 2215.62L992.265 2195.5L963.686 2179L939.91 2197.29L913.93 2182.29L890.154 2200.59L887.776 2202.42L864 2220.71ZM890.374 2203.92L868.976 2220.38L892.358 2233.88L913.757 2217.42L890.374 2203.92ZM892.752 2202.09L916.134 2215.59L937.533 2199.12L914.15 2185.62L892.752 2202.09ZM918.732 2217.09L942.115 2230.59L963.514 2214.12L940.131 2200.62L918.732 2217.09ZM942.509 2198.79L965.891 2212.29L987.29 2195.83L963.907 2182.33L942.509 2198.79Z" fill="black" fill-opacity="0.2"/>
<path fill-rule="evenodd" clip-rule="evenodd" d="M885.533 2225.14L876.439 2219.89L884.761 2213.49L893.854 2218.74L885.533 2225.14ZM885.312 2221.81L888.878 2219.07L884.981 2216.82L881.415 2219.56L885.312 2221.81Z" fill="black" fill-opacity="0.2"/>
<path fill-rule="evenodd" clip-rule="evenodd" d="M54 904.714L82.5788 921.214L106.355 902.919L132.336 917.919L156.112 899.624L182.265 879.5L153.686 863L129.91 881.295L103.93 866.295L80.1536 884.59L77.776 886.419L54 904.714ZM80.3741 887.919L58.9756 904.384L82.3583 917.884L103.757 901.419L80.3741 887.919ZM82.7517 886.09L106.134 899.59L127.533 883.124L104.15 869.624L82.7517 886.09ZM108.732 901.09L132.115 914.59L153.514 898.124L130.131 884.624L108.732 901.09ZM132.508 882.795L155.891 896.295L177.29 879.829L153.907 866.329L132.508 882.795Z" fill="black" fill-opacity="0.2"/>
<path fill-rule="evenodd" clip-rule="evenodd" d="M75.5324 909.14L66.4391 903.89L74.7608 897.487L83.854 902.737L75.5324 909.14ZM75.3119 905.811L78.8783 903.066L74.9812 900.816L71.4148 903.561L75.3119 905.811Z" fill="black" fill-opacity="0.2"/>
<path fill-rule="evenodd" clip-rule="evenodd" d="M480 522.009L508.579 538.509L532.355 520.214L558.336 535.214L582.112 516.919L605.888 498.624L632.041 478.5L603.462 462L579.686 480.295L577.309 482.124L555.91 498.59L529.93 483.59L506.154 501.884L503.776 503.714L480 522.009ZM506.374 505.214L484.976 521.679L508.358 535.179L529.757 518.714L506.374 505.214ZM508.752 503.384L532.134 516.884L553.533 500.419L530.15 486.919L508.752 503.384ZM534.732 518.384L558.115 531.884L579.514 515.419L556.131 501.919L534.732 518.384ZM558.508 500.09L581.891 513.59L603.29 497.124L579.907 483.624L558.508 500.09ZM605.667 495.295L582.284 481.795L603.683 465.329L627.066 478.829L605.667 495.295Z" fill="black" fill-opacity="0.2"/>
<path fill-rule="evenodd" clip-rule="evenodd" d="M501.532 526.435L492.439 521.185L500.761 514.782L509.854 520.032L501.532 526.435ZM501.312 523.106L504.878 520.361L500.981 518.111L497.415 520.856L501.312 523.106Z" fill="black" fill-opacity="0.2"/>
<path fill-rule="evenodd" clip-rule="evenodd" d="M1074 1784.01L1102.58 1800.51L1126.35 1782.21L1152.34 1797.21L1176.11 1778.92L1199.89 1760.62L1226.04 1740.5L1197.46 1724L1173.69 1742.29L1171.31 1744.12L1149.91 1760.59L1123.93 1745.59L1100.15 1763.88L1097.78 1765.71L1074 1784.01ZM1100.37 1767.21L1078.98 1783.68L1102.36 1797.18L1123.76 1780.71L1100.37 1767.21ZM1102.75 1765.38L1126.13 1778.88L1147.53 1762.42L1124.15 1748.92L1102.75 1765.38ZM1128.73 1780.38L1152.12 1793.88L1173.51 1777.42L1150.13 1763.92L1128.73 1780.38ZM1152.51 1762.09L1175.89 1775.59L1197.29 1759.12L1173.91 1745.62L1152.51 1762.09ZM1199.67 1757.29L1176.28 1743.79L1197.68 1727.33L1221.07 1740.83L1199.67 1757.29Z" fill="black" fill-opacity="0.2"/>
<path fill-rule="evenodd" clip-rule="evenodd" d="M1095.53 1788.44L1086.44 1783.19L1094.76 1776.78L1103.85 1782.03L1095.53 1788.44ZM1095.31 1785.11L1098.88 1782.36L1094.98 1780.11L1091.41 1782.86L1095.31 1785.11Z" fill="black" fill-opacity="0.2"/>
<path fill-rule="evenodd" clip-rule="evenodd" d="M99.8237 508L73.2577 527.577L98.9213 543.113L101.488 544.667L124.585 558.65L102.849 574.667L100.434 576.447L76.2831 594.244L101.947 609.78L101.142 610.373L76.9908 628.17L105.221 645.26L129.372 627.463L131.787 625.684L155.938 607.887L130.274 592.35L131.079 591.757L152.815 575.74L155.23 573.96L179.381 556.163L153.717 540.626L151.151 539.073L128.054 525.09L125.487 523.536L99.8237 508ZM123.072 525.316L99.975 511.333L78.2392 527.351L101.336 541.333L123.072 525.316ZM125.639 526.87L103.903 542.887L127 556.87L148.736 540.853L125.639 526.87ZM129.566 558.424L151.302 542.406L174.399 556.389L152.664 572.406L129.566 558.424ZM105.415 576.221L127.151 560.203L150.249 574.186L128.513 590.203L105.415 576.221ZM126.098 591.983L103 578L81.2646 594.018L104.362 608L126.098 591.983ZM103.708 611.927L81.9722 627.944L105.069 641.927L126.805 625.91L103.708 611.927ZM129.22 624.13L150.956 608.113L127.859 594.13L106.123 610.147L129.22 624.13Z" fill="black" fill-opacity="0.2"/>
<path fill-rule="evenodd" clip-rule="evenodd" d="M91.7491 522.562L100.202 516.333L109.184 521.771L100.731 528L91.7491 522.562ZM96.7305 522.336L100.58 524.667L104.203 521.997L100.353 519.667L96.7305 522.336Z" fill="black" fill-opacity="0.2"/>
<path fill-rule="evenodd" clip-rule="evenodd" d="M99.8237 1923L73.2577 1942.58L98.9213 1958.11L101.488 1959.67L124.585 1973.65L102.849 1989.67L100.434 1991.45L76.2831 2009.24L101.947 2024.78L101.142 2025.37L76.9908 2043.17L105.221 2060.26L129.372 2042.46L131.787 2040.68L155.938 2022.89L130.274 2007.35L131.079 2006.76L152.815 1990.74L155.23 1988.96L179.381 1971.16L153.717 1955.63L151.151 1954.07L128.054 1940.09L125.487 1938.54L99.8237 1923ZM123.072 1940.32L99.975 1926.33L78.2392 1942.35L101.336 1956.33L123.072 1940.32ZM125.639 1941.87L103.903 1957.89L127 1971.87L148.736 1955.85L125.639 1941.87ZM129.566 1973.42L151.302 1957.41L174.399 1971.39L152.664 1987.41L129.566 1973.42ZM105.415 1991.22L127.151 1975.2L150.249 1989.19L128.513 2005.2L105.415 1991.22ZM126.098 2006.98L103 1993L81.2646 2009.02L104.362 2023L126.098 2006.98ZM103.708 2026.93L81.9722 2042.94L105.069 2056.93L126.805 2040.91L103.708 2026.93ZM129.22 2039.13L150.956 2023.11L127.859 2009.13L106.123 2025.15L129.22 2039.13Z" fill="black" fill-opacity="0.2"/>
<path fill-rule="evenodd" clip-rule="evenodd" d="M91.7491 1937.56L100.202 1931.33L109.184 1936.77L100.731 1943L91.7491 1937.56ZM96.7305 1937.34L100.58 1939.67L104.203 1937L100.353 1934.67L96.7305 1937.34Z" fill="black" fill-opacity="0.2"/>
<path fill-rule="evenodd" clip-rule="evenodd" d="M786.824 1345L760.258 1364.58L785.921 1380.11L788.488 1381.67L811.585 1395.65L789.849 1411.67L787.434 1413.45L763.283 1431.24L788.947 1446.78L788.142 1447.37L763.991 1465.17L792.221 1482.26L816.372 1464.46L818.787 1462.68L842.938 1444.89L817.274 1429.35L818.079 1428.76L839.815 1412.74L842.23 1410.96L866.381 1393.16L840.717 1377.63L838.151 1376.07L815.054 1362.09L812.487 1360.54L786.824 1345ZM810.072 1362.32L786.975 1348.33L765.239 1364.35L788.336 1378.33L810.072 1362.32ZM812.639 1363.87L790.903 1379.89L814 1393.87L835.736 1377.85L812.639 1363.87ZM816.566 1395.42L838.302 1379.41L861.399 1393.39L839.664 1409.41L816.566 1395.42ZM792.415 1413.22L814.151 1397.2L837.249 1411.19L815.513 1427.2L792.415 1413.22ZM813.098 1428.98L790 1415L768.265 1431.02L791.362 1445L813.098 1428.98ZM790.708 1448.93L768.972 1464.94L792.069 1478.93L813.805 1462.91L790.708 1448.93ZM816.22 1461.13L837.956 1445.11L814.859 1431.13L793.123 1447.15L816.22 1461.13Z" fill="black" fill-opacity="0.2"/>
<path fill-rule="evenodd" clip-rule="evenodd" d="M778.749 1359.56L787.202 1353.33L796.184 1358.77L787.731 1365L778.749 1359.56ZM783.731 1359.34L787.58 1361.67L791.203 1359L787.353 1356.67L783.731 1359.34Z" fill="black" fill-opacity="0.2"/>
<path fill-rule="evenodd" clip-rule="evenodd" d="M473.631 973.204L497.842 955.488L500.263 953.716L524.473 936L552.646 953.185L528.435 970.901L554.047 986.523L529.836 1004.24L527.415 1006.01L505.626 1021.95L531.237 1037.58L507.027 1055.29L504.606 1057.06L480.395 1074.78L452.223 1057.6L476.433 1039.88L450.822 1024.26L475.032 1006.54L477.453 1004.77L499.243 988.826L473.631 973.204ZM523.453 971.11L500.403 957.05L478.613 972.994L501.664 987.054L523.453 971.11ZM502.824 955.278L525.874 969.338L547.663 953.394L524.613 939.334L502.824 955.278ZM504.225 988.616L526.014 972.672L549.064 986.732L527.275 1002.68L504.225 988.616ZM480.014 1006.33L501.804 990.388L524.854 1004.45L503.065 1020.39L480.014 1006.33ZM500.644 1022.16L477.593 1008.1L455.804 1024.05L478.854 1038.11L500.644 1022.16ZM478.994 1041.44L457.205 1057.39L480.255 1071.45L502.045 1055.5L478.994 1041.44ZM504.466 1053.73L526.255 1037.79L503.205 1023.73L481.415 1039.67L504.466 1053.73Z" fill="black" fill-opacity="0.2"/>
<path fill-rule="evenodd" clip-rule="evenodd" d="M516.35 950.535L524.823 944.335L533.787 949.802L525.314 956.003L516.35 950.535ZM521.332 950.326L525.174 952.669L528.805 950.012L524.963 947.668L521.332 950.326Z" fill="black" fill-opacity="0.2"/>
<path fill-rule="evenodd" clip-rule="evenodd" d="M89.6312 2658.2L113.842 2640.49L116.263 2638.72L140.473 2621L168.646 2638.18L144.435 2655.9L170.047 2671.52L145.836 2689.24L143.415 2691.01L121.626 2706.95L147.237 2722.58L123.027 2740.29L120.606 2742.06L96.3953 2759.78L68.2227 2742.6L92.4332 2724.88L66.8218 2709.26L91.0322 2691.54L93.4532 2689.77L115.243 2673.83L89.6312 2658.2ZM139.453 2656.11L116.403 2642.05L94.6134 2657.99L117.664 2672.05L139.453 2656.11ZM118.824 2640.28L141.874 2654.34L163.663 2638.39L140.613 2624.33L118.824 2640.28ZM120.225 2673.62L142.014 2657.67L165.064 2671.73L143.275 2687.68L120.225 2673.62ZM96.0144 2691.33L117.804 2675.39L140.854 2689.45L119.065 2705.39L96.0144 2691.33ZM116.644 2707.16L93.5933 2693.1L71.804 2709.05L94.8542 2723.11L116.644 2707.16ZM94.9943 2726.44L73.2049 2742.39L96.2552 2756.45L118.045 2740.5L94.9943 2726.44ZM120.466 2738.73L142.255 2722.79L119.205 2708.73L97.4153 2724.67L120.466 2738.73Z" fill="black" fill-opacity="0.2"/>
<path fill-rule="evenodd" clip-rule="evenodd" d="M132.35 2635.54L140.823 2629.33L149.787 2634.8L141.314 2641L132.35 2635.54ZM137.332 2635.33L141.174 2637.67L144.805 2635.01L140.963 2632.67L137.332 2635.33Z" fill="black" fill-opacity="0.2"/>
<path fill-rule="evenodd" clip-rule="evenodd" d="M101.112 159.182L77 177.031L102.697 192.512L105.267 194.06L130.964 209.541L157.488 189.907L131.79 174.426L153.492 158.362L176.619 172.294L179.189 173.842L204.886 189.323L228.998 171.474L231.409 169.689L253.11 153.625L255.522 151.84L279.634 133.991L253.937 118.51L251.367 116.962L225.67 101.481L199.146 121.115L224.844 136.596L203.143 152.66L180.015 138.727L177.445 137.179L151.748 121.699L127.636 139.548L103.524 157.397L101.112 159.182ZM227.413 138.144L205.712 154.208L228.84 168.141L250.541 152.077L227.413 138.144ZM248.956 118.747L225.828 104.814L204.127 120.878L227.255 134.811L248.956 118.747ZM251.526 120.295L229.825 136.359L252.952 150.292L274.653 134.227L251.526 120.295ZM200.731 154.445L177.604 140.512L155.903 156.577L179.03 170.509L200.731 154.445ZM226.428 169.926L203.301 155.993L181.6 172.058L204.727 185.99L226.428 169.926ZM175.034 138.964L153.333 155.029L130.206 141.096L151.907 125.032L175.034 138.964ZM129.221 172.878L150.922 156.814L127.794 142.881L106.093 158.945L129.221 172.878ZM126.809 174.663L105.108 190.727L81.9809 176.794L103.682 160.73L126.809 174.663ZM130.806 206.208L107.678 192.275L129.379 176.211L152.507 190.144L130.806 206.208Z" fill="black" fill-opacity="0.2"/>
<path fill-rule="evenodd" clip-rule="evenodd" d="M217.627 116.061L226.066 109.813L235.06 115.232L226.621 121.479L217.627 116.061ZM222.608 115.824L226.462 118.146L230.079 115.468L226.225 113.146L222.608 115.824Z" fill="black" fill-opacity="0.2"/>
<path fill-rule="evenodd" clip-rule="evenodd" d="M987.112 1100.18L963 1118.03L988.697 1133.51L991.267 1135.06L1016.96 1150.54L1043.49 1130.91L1017.79 1115.43L1039.49 1099.36L1062.62 1113.29L1065.19 1114.84L1090.89 1130.32L1115 1112.47L1117.41 1110.69L1139.11 1094.62L1141.52 1092.84L1165.63 1074.99L1139.94 1059.51L1137.37 1057.96L1111.67 1042.48L1085.15 1062.11L1110.84 1077.6L1089.14 1093.66L1066.02 1079.73L1063.45 1078.18L1037.75 1062.7L1013.64 1080.55L989.524 1098.4L987.112 1100.18ZM1113.41 1079.14L1091.71 1095.21L1114.84 1109.14L1136.54 1093.08L1113.41 1079.14ZM1134.96 1059.75L1111.83 1045.81L1090.13 1061.88L1113.25 1075.81L1134.96 1059.75ZM1137.53 1061.29L1115.82 1077.36L1138.95 1091.29L1160.65 1075.23L1137.53 1061.29ZM1086.73 1095.45L1063.6 1081.51L1041.9 1097.58L1065.03 1111.51L1086.73 1095.45ZM1112.43 1110.93L1089.3 1096.99L1067.6 1113.06L1090.73 1126.99L1112.43 1110.93ZM1061.03 1079.96L1039.33 1096.03L1016.21 1082.1L1037.91 1066.03L1061.03 1079.96ZM1015.22 1113.88L1036.92 1097.81L1013.79 1083.88L992.093 1099.95L1015.22 1113.88ZM1012.81 1115.66L991.108 1131.73L967.981 1117.79L989.682 1101.73L1012.81 1115.66ZM1016.81 1147.21L993.678 1133.28L1015.38 1117.21L1038.51 1131.14L1016.81 1147.21Z" fill="black" fill-opacity="0.2"/>
<path fill-rule="evenodd" clip-rule="evenodd" d="M1103.63 1057.06L1112.07 1050.81L1121.06 1056.23L1112.62 1062.48L1103.63 1057.06ZM1108.61 1056.82L1112.46 1059.15L1116.08 1056.47L1112.22 1054.15L1108.61 1056.82Z" fill="black" fill-opacity="0.2"/>
</svg>
