<svg width="272" height="373" viewBox="0 0 272 373" fill="none" xmlns="http://www.w3.org/2000/svg">
<line x1="251.293" y1="372.293" x2="271.293" y2="352.293" stroke="#252E3A" stroke-width="2"/>
<line x1="231.293" y1="372.293" x2="271.293" y2="332.293" stroke="#252E3A" stroke-width="2"/>
<line x1="211.293" y1="372.293" x2="271.293" y2="312.293" stroke="#252E3A" stroke-width="2"/>
<line x1="191.293" y1="372.293" x2="271.293" y2="292.293" stroke="#252E3A" stroke-width="2"/>
<line x1="172.293" y1="371.293" x2="271.293" y2="272.293" stroke="#252E3A" stroke-width="2"/>
<line x1="152.293" y1="371.293" x2="271.293" y2="252.293" stroke="#252E3A" stroke-width="2"/>
<line x1="132.293" y1="371.293" x2="271.293" y2="232.293" stroke="#252E3A" stroke-width="2"/>
<line x1="112.293" y1="371.293" x2="271.293" y2="212.293" stroke="#252E3A" stroke-width="2"/>
<line x1="92.2929" y1="371.293" x2="271.293" y2="192.293" stroke="#252E3A" stroke-width="2"/>
<line x1="72.2929" y1="371.293" x2="271.293" y2="172.293" stroke="#252E3A" stroke-width="2"/>
<line x1="52.2929" y1="371.293" x2="271.293" y2="152.293" stroke="#252E3A" stroke-width="2"/>
<line x1="32.2929" y1="371.293" x2="271.293" y2="132.293" stroke="#252E3A" stroke-width="2"/>
<line x1="12.2929" y1="371.293" x2="271.293" y2="112.293" stroke="#252E3A" stroke-width="2"/>
<line x1="1.29289" y1="362.293" x2="271.293" y2="92.2929" stroke="#252E3A" stroke-width="2"/>
<line x1="1.29289" y1="342.293" x2="271.293" y2="72.2929" stroke="#252E3A" stroke-width="2"/>
<line x1="1.29289" y1="342.293" x2="271.293" y2="72.2929" stroke="#252E3A" stroke-width="2"/>
<line x1="1.29289" y1="342.293" x2="271.293" y2="72.2929" stroke="#252E3A" stroke-width="2"/>
<line x1="1.29289" y1="342.293" x2="271.293" y2="72.2929" stroke="#252E3A" stroke-width="2"/>
<line x1="1.29289" y1="322.293" x2="271.293" y2="52.2929" stroke="#252E3A" stroke-width="2"/>
<line x1="1.29289" y1="302.293" x2="271.293" y2="32.2929" stroke="#252E3A" stroke-width="2"/>
<line x1="1.29289" y1="282.293" x2="271.293" y2="12.2929" stroke="#252E3A" stroke-width="2"/>
<line x1="1.29289" y1="262.293" x2="262.293" y2="1.2929" stroke="#252E3A" stroke-width="2"/>
<line x1="1.29289" y1="242.293" x2="241.293" y2="2.2929" stroke="#252E3A" stroke-width="2"/>
<line x1="1.29289" y1="222.293" x2="222.293" y2="1.2929" stroke="#252E3A" stroke-width="2"/>
<line x1="1.29289" y1="202.293" x2="202.293" y2="1.2929" stroke="#252E3A" stroke-width="2"/>
<line x1="1.29289" y1="182.293" x2="181.293" y2="2.2929" stroke="#252E3A" stroke-width="2"/>
<line x1="1.29289" y1="162.293" x2="161.293" y2="2.2929" stroke="#252E3A" stroke-width="2"/>
<line x1="1.29289" y1="142.293" x2="141.293" y2="2.2929" stroke="#252E3A" stroke-width="2"/>
<line x1="1.29289" y1="122.293" x2="121.293" y2="2.2929" stroke="#252E3A" stroke-width="2"/>
<line x1="1.29289" y1="102.293" x2="101.293" y2="2.2929" stroke="#252E3A" stroke-width="2"/>
<line x1="1.29289" y1="82.2929" x2="82.2929" y2="1.29289" stroke="#252E3A" stroke-width="2"/>
<line x1="1.29289" y1="62.2929" x2="61.2929" y2="2.29289" stroke="#252E3A" stroke-width="2"/>
<line x1="1.29289" y1="42.2929" x2="41.2929" y2="2.29289" stroke="#252E3A" stroke-width="2"/>
<line x1="1.29289" y1="22.2929" x2="21.2929" y2="2.29289" stroke="#252E3A" stroke-width="2"/>
</svg>
