<svg width="634" height="154" viewBox="0 0 634 154" fill="none" xmlns="http://www.w3.org/2000/svg">
<rect x="32" y="62" width="30" height="30" fill="#D50E50" stroke="#252E3A" stroke-width="3"/>
<rect x="62" y="62" width="30" height="30" fill="#D50E50" stroke="#252E3A" stroke-width="3"/>
<rect x="62" y="32" width="30" height="30" fill="#D50E50" stroke="#252E3A" stroke-width="3"/>
<rect x="62" y="2" width="30" height="30" fill="#D50E50" stroke="#252E3A" stroke-width="3"/>
<rect x="122" y="2" width="30" height="30" fill="#FBAD18" stroke="#252E3A" stroke-width="3"/>
<rect x="137" y="32" width="30" height="30" fill="#FBAD18" stroke="#252E3A" stroke-width="3"/>
<rect x="152" y="62" width="30" height="30" fill="#FBAD18" stroke="#252E3A" stroke-width="3"/>
<rect x="167" y="92" width="30" height="30" fill="#FBAD18" stroke="#252E3A" stroke-width="3"/>
<rect x="182" y="62" width="30" height="30" fill="#FBAD18" stroke="#252E3A" stroke-width="3"/>
<rect x="167" y="122" width="30" height="30" fill="#FBAD18" stroke="#252E3A" stroke-width="3"/>
<rect x="197" y="32" width="30" height="30" fill="#FBAD18" stroke="#252E3A" stroke-width="3"/>
<rect x="212" y="2" width="30" height="30" fill="#FBAD18" stroke="#252E3A" stroke-width="3"/>
<rect x="272" y="2" width="30" height="30" fill="#20A6C1" stroke="#252E3A" stroke-width="3"/>
<rect x="392" y="2" width="30" height="30" fill="#93268F" stroke="#252E3A" stroke-width="3"/>
<rect x="272" y="32" width="30" height="30" fill="#20A6C1" stroke="#252E3A" stroke-width="3"/>
<rect x="392" y="32" width="30" height="30" fill="#93268F" stroke="#252E3A" stroke-width="3"/>
<rect x="272" y="62" width="30" height="30" fill="#20A6C1" stroke="#252E3A" stroke-width="3"/>
<rect x="392" y="62" width="30" height="30" fill="#93268F" stroke="#252E3A" stroke-width="3"/>
<rect x="272" y="92" width="30" height="30" fill="#20A6C1" stroke="#252E3A" stroke-width="3"/>
<rect x="392" y="92" width="30" height="30" fill="#93268F" stroke="#252E3A" stroke-width="3"/>
<rect x="272" y="122" width="30" height="30" fill="#20A6C1" stroke="#252E3A" stroke-width="3"/>
<rect x="392" y="122" width="30" height="30" fill="#93268F" stroke="#252E3A" stroke-width="3"/>
<rect x="302" y="122" width="30" height="30" fill="#20A6C1" stroke="#252E3A" stroke-width="3"/>
<rect x="422" y="122" width="30" height="30" fill="#93268F" stroke="#252E3A" stroke-width="3"/>
<rect x="332" y="122" width="30" height="30" fill="#20A6C1" stroke="#252E3A" stroke-width="3"/>
<rect x="452" y="122" width="30" height="30" fill="#93268F" stroke="#252E3A" stroke-width="3"/>
<rect x="512" y="122" width="30" height="30" fill="#54AD1E" stroke="#252E3A" stroke-width="3"/>
<rect x="602" y="122" width="30" height="30" fill="#54AD1E" stroke="#252E3A" stroke-width="3"/>
<rect x="332" y="92" width="30" height="30" fill="#20A6C1" stroke="#252E3A" stroke-width="3"/>
<rect x="452" y="92" width="30" height="30" fill="#93268F" stroke="#252E3A" stroke-width="3"/>
<rect x="512" y="92" width="30" height="30" fill="#54AD1E" stroke="#252E3A" stroke-width="3"/>
<rect x="602" y="92" width="30" height="30" fill="#54AD1E" stroke="#252E3A" stroke-width="3"/>
<rect x="452" y="62" width="30" height="30" fill="#93268F" stroke="#252E3A" stroke-width="3"/>
<rect x="512" y="62" width="30" height="30" fill="#54AD1E" stroke="#252E3A" stroke-width="3"/>
<rect x="602" y="62" width="30" height="30" fill="#54AD1E" stroke="#252E3A" stroke-width="3"/>
<rect x="302" y="2" width="30" height="30" fill="#20A6C1" stroke="#252E3A" stroke-width="3"/>
<rect x="422" y="2" width="30" height="30" fill="#93268F" stroke="#252E3A" stroke-width="3"/>
<rect x="332" y="2" width="30" height="30" fill="#20A6C1" stroke="#252E3A" stroke-width="3"/>
<rect x="452" y="2" width="30" height="30" fill="#93268F" stroke="#252E3A" stroke-width="3"/>
<rect x="512" y="2" width="30" height="30" fill="#54AD1E" stroke="#252E3A" stroke-width="3"/>
<rect x="602" y="2" width="30" height="30" fill="#54AD1E" stroke="#252E3A" stroke-width="3"/>
<rect x="332" y="32" width="30" height="30" fill="#20A6C1" stroke="#252E3A" stroke-width="3"/>
<rect x="452" y="32" width="30" height="30" fill="#93268F" stroke="#252E3A" stroke-width="3"/>
<rect x="512" y="32" width="30" height="30" fill="#54AD1E" stroke="#252E3A" stroke-width="3"/>
<rect x="602" y="32" width="30" height="30" fill="#54AD1E" stroke="#252E3A" stroke-width="3"/>
<rect x="542" y="32" width="30" height="30" fill="#54AD1E" stroke="#252E3A" stroke-width="3"/>
<rect x="557" y="62" width="30" height="30" fill="#54AD1E" stroke="#252E3A" stroke-width="3"/>
<rect x="572" y="92" width="30" height="30" fill="#54AD1E" stroke="#252E3A" stroke-width="3"/>
<rect x="32" y="2" width="30" height="30" fill="#D50E50" stroke="#252E3A" stroke-width="3"/>
<rect x="2" y="2" width="30" height="30" fill="#D50E50" stroke="#252E3A" stroke-width="3"/>
<rect x="2" y="32" width="30" height="30" fill="#D50E50" stroke="#252E3A" stroke-width="3"/>
<rect x="2" y="62" width="30" height="30" fill="#D50E50" stroke="#252E3A" stroke-width="3"/>
<rect x="2" y="92" width="30" height="30" fill="#D50E50" stroke="#252E3A" stroke-width="3"/>
<rect x="2" y="122" width="30" height="30" fill="#D50E50" stroke="#252E3A" stroke-width="3"/>
<rect x="39.5" y="69.5" width="7.5" height="7.5" fill="white" stroke="#252E3A" stroke-width="3"/>
<rect x="617" y="9.5" width="7.5" height="7.5" fill="white" stroke="#252E3A" stroke-width="3"/>
</svg>
