<svg width="525" height="231" viewBox="0 0 525 231" fill="none" xmlns="http://www.w3.org/2000/svg">
<path d="M419.782 23.202H415.428L405.569 8.30421V23.202H401.214V1.46179H405.569L415.428 16.3907V1.46179H419.782V23.202Z" fill="#D50E50"/>
<path d="M431.736 23.4819C430.077 23.4819 428.585 23.1191 427.258 22.3934C425.931 21.6469 424.883 20.5998 424.116 19.2521C423.37 17.9043 422.997 16.3492 422.997 14.5868C422.997 12.8243 423.38 11.2693 424.147 9.9215C424.935 8.57376 426.003 7.53703 427.351 6.81132C428.699 6.06487 430.202 5.69165 431.861 5.69165C433.519 5.69165 435.023 6.06487 436.37 6.81132C437.718 7.53703 438.776 8.57376 439.543 9.9215C440.331 11.2693 440.725 12.8243 440.725 14.5868C440.725 16.3492 440.32 17.9043 439.512 19.2521C438.724 20.5998 437.646 21.6469 436.277 22.3934C434.929 23.1191 433.416 23.4819 431.736 23.4819ZM431.736 19.6875C432.524 19.6875 433.26 19.5009 433.944 19.1277C434.649 18.7337 435.209 18.1531 435.624 17.386C436.039 16.6188 436.246 15.6857 436.246 14.5868C436.246 12.9488 435.811 11.6943 434.94 10.8235C434.09 9.93187 433.043 9.48608 431.798 9.48608C430.554 9.48608 429.507 9.93187 428.657 10.8235C427.828 11.6943 427.413 12.9488 427.413 14.5868C427.413 16.2248 427.817 17.4896 428.626 18.3812C429.455 19.2521 430.492 19.6875 431.736 19.6875Z" fill="#D50E50"/>
<path d="M451.103 19.1899L455.458 5.97157H460.092L453.716 23.202H448.428L442.084 5.97157H446.749L451.103 19.1899Z" fill="#D50E50"/>
<path d="M484.691 4.29206H474.614V9.61049C475.049 9.07139 475.671 8.63596 476.48 8.30421C477.288 7.95172 478.149 7.77547 479.061 7.77547C480.72 7.77547 482.078 8.13833 483.136 8.86404C484.193 9.58975 484.96 10.5228 485.437 11.6632C485.914 12.7829 486.152 13.9855 486.152 15.271C486.152 17.6555 485.468 19.5735 484.1 21.0249C482.752 22.4763 480.824 23.202 478.315 23.202C475.951 23.202 474.064 22.6111 472.654 21.4292C471.244 20.2473 470.446 18.7026 470.259 16.795H474.489C474.676 17.6244 475.091 18.2879 475.733 18.7855C476.397 19.2832 477.237 19.532 478.253 19.532C479.476 19.532 480.399 19.1484 481.021 18.3812C481.643 17.614 481.954 16.598 481.954 15.3332C481.954 14.0477 481.632 13.0732 480.99 12.4097C480.367 11.7254 479.445 11.3833 478.221 11.3833C477.351 11.3833 476.625 11.601 476.044 12.0364C475.464 12.4719 475.049 13.0524 474.8 13.7781H470.633V0.46653H484.691V4.29206Z" fill="#FBAD18"/>
<path d="M503.214 10.2636V13.9337H490.026V10.2636H503.214Z" fill="#FBAD18"/>
<path d="M519.356 6.18928C519.148 5.31842 518.785 4.66529 518.267 4.22986C517.769 3.79443 517.044 3.57672 516.09 3.57672C514.659 3.57672 513.602 4.15729 512.918 5.31842C512.254 6.45883 511.912 8.32494 511.891 10.9168C512.389 10.0874 513.115 9.44461 514.068 8.98845C515.022 8.51155 516.059 8.27311 517.179 8.27311C518.526 8.27311 519.718 8.56339 520.755 9.14396C521.792 9.72453 522.601 10.5746 523.181 11.6943C523.762 12.7932 524.052 14.1203 524.052 15.6754C524.052 17.1475 523.751 18.4642 523.15 19.6253C522.57 20.7657 521.709 21.6573 520.569 22.3001C519.428 22.9428 518.07 23.2642 516.494 23.2642C514.338 23.2642 512.638 22.7873 511.394 21.8335C510.17 20.8797 509.31 19.5527 508.812 17.8525C508.335 16.1315 508.097 14.0166 508.097 11.5077C508.097 7.71327 508.75 4.8519 510.056 2.92358C511.362 0.974527 513.426 0 516.245 0C518.423 0 520.112 0.590937 521.315 1.77281C522.518 2.95468 523.212 4.42684 523.399 6.18928H519.356ZM516.183 11.8498C515.084 11.8498 514.162 12.1712 513.415 12.814C512.669 13.4568 512.296 14.3898 512.296 15.6132C512.296 16.8365 512.638 17.8007 513.322 18.5056C514.027 19.2106 515.012 19.5631 516.277 19.5631C517.396 19.5631 518.277 19.221 518.92 18.5367C519.584 17.8525 519.915 16.9298 519.915 15.7687C519.915 14.5661 519.594 13.6123 518.951 12.9073C518.329 12.2023 517.407 11.8498 516.183 11.8498Z" fill="#FBAD18"/>
<path d="M18.8138 205.94C18.8138 207.269 18.5072 208.489 17.8942 209.6C17.2812 210.689 16.3398 211.571 15.07 212.247C13.8001 212.922 12.2238 213.26 10.3409 213.26H6.85985V221.495H1.24414V198.555H10.3409C12.18 198.555 13.7344 198.871 15.0043 199.503C16.2741 200.134 17.2265 201.006 17.8614 202.117C18.4963 203.228 18.8138 204.502 18.8138 205.94ZM9.91401 208.816C10.9868 208.816 11.7859 208.565 12.3114 208.064C12.8368 207.563 13.0995 206.855 13.0995 205.94C13.0995 205.025 12.8368 204.317 12.3114 203.816C11.7859 203.315 10.9868 203.064 9.91401 203.064H6.85985V208.816H9.91401Z" fill="#BEC0C4"/>
<path d="M40.4563 203.261L28.9622 230.154H22.9196L27.1231 220.874L19.6684 203.261H25.9409L30.1773 214.665L34.3809 203.261H40.4563Z" fill="#BEC0C4"/>
<path d="M52.7004 216.756V221.495H49.8433C47.8072 221.495 46.2199 221.004 45.0815 220.024C43.943 219.022 43.3738 217.399 43.3738 215.155V207.901H41.1406V203.261H43.3738V198.816H48.9895V203.261H52.6676V207.901H48.9895V215.22C48.9895 215.765 49.1208 216.157 49.3835 216.397C49.6463 216.636 50.0841 216.756 50.6972 216.756H52.7004Z" fill="#BEC0C4"/>
<path d="M67.0927 203.064C69.1945 203.064 70.8803 203.762 72.1502 205.156C73.42 206.528 74.0549 208.424 74.0549 210.842V221.495H68.472V211.593C68.472 210.373 68.1546 209.426 67.5197 208.75C66.8847 208.075 66.0309 207.737 64.9581 207.737C63.8853 207.737 63.0315 208.075 62.3966 208.75C61.7616 209.426 61.4442 210.373 61.4442 211.593V221.495H55.8285V197.313H61.4442V205.711C62.0134 204.905 62.7906 204.263 63.7759 203.783C64.7611 203.304 65.8667 203.064 67.0927 203.064Z" fill="#BEC0C4"/>
<path d="M86.2987 221.756C84.5035 221.756 82.8833 221.375 81.4383 220.612C80.0153 219.85 78.8877 218.76 78.0558 217.344C77.2457 215.928 76.8407 214.273 76.8407 212.378C76.8407 210.504 77.2567 208.859 78.0886 207.443C78.9206 206.005 80.059 204.905 81.504 204.143C82.949 203.38 84.5691 202.999 86.3644 202.999C88.1597 202.999 89.7798 203.38 91.2248 204.143C92.6698 204.905 93.8082 206.005 94.6402 207.443C95.4721 208.859 95.8881 210.504 95.8881 212.378C95.8881 214.251 95.4612 215.907 94.6073 217.344C93.7754 218.76 92.626 219.85 91.1591 220.612C89.7141 221.375 88.094 221.756 86.2987 221.756ZM86.2987 216.92C87.3715 216.92 88.2801 216.528 89.0245 215.743C89.7907 214.959 90.1739 213.837 90.1739 212.378C90.1739 210.918 89.8017 209.796 89.0573 209.012C88.3348 208.227 87.4372 207.835 86.3644 207.835C85.2697 207.835 84.3611 208.227 83.6386 209.012C82.9162 209.774 82.5549 210.896 82.5549 212.378C82.5549 213.837 82.9052 214.959 83.6058 215.743C84.3283 216.528 85.2259 216.92 86.2987 216.92Z" fill="#BEC0C4"/>
<path d="M110.033 203.064C112.179 203.064 113.886 203.762 115.156 205.156C116.448 206.528 117.094 208.424 117.094 210.842V221.495H111.511V211.593C111.511 210.373 111.193 209.426 110.559 208.75C109.924 208.075 109.07 207.737 107.997 207.737C106.924 207.737 106.07 208.075 105.435 208.75C104.801 209.426 104.483 210.373 104.483 211.593V221.495H98.8674V203.261H104.483V205.679C105.052 204.873 105.819 204.241 106.782 203.783C107.745 203.304 108.829 203.064 110.033 203.064Z" fill="#BEC0C4"/>
<path d="M127.003 209.992C127.003 207.726 127.496 205.711 128.481 203.947C129.466 202.16 130.835 200.777 132.586 199.797C134.359 198.795 136.363 198.294 138.596 198.294C141.332 198.294 143.675 199.012 145.624 200.45C147.572 201.888 148.875 203.849 149.532 206.332H143.358C142.898 205.374 142.241 204.644 141.387 204.143C140.555 203.642 139.603 203.391 138.53 203.391C136.8 203.391 135.399 203.99 134.327 205.188C133.254 206.387 132.717 207.988 132.717 209.992C132.717 211.996 133.254 213.597 134.327 214.796C135.399 215.994 136.8 216.593 138.53 216.593C139.603 216.593 140.555 216.342 141.387 215.841C142.241 215.34 142.898 214.61 143.358 213.652H149.532C148.875 216.135 147.572 218.096 145.624 219.534C143.675 220.95 141.332 221.658 138.596 221.658C136.363 221.658 134.359 221.168 132.586 220.187C130.835 219.185 129.466 217.802 128.481 216.037C127.496 214.273 127.003 212.258 127.003 209.992Z" fill="#BEC0C4"/>
<path d="M161.312 221.756C159.517 221.756 157.897 221.375 156.452 220.612C155.029 219.85 153.901 218.76 153.069 217.344C152.259 215.928 151.854 214.273 151.854 212.378C151.854 210.504 152.27 208.859 153.102 207.443C153.934 206.005 155.072 204.905 156.517 204.143C157.962 203.38 159.582 202.999 161.378 202.999C163.173 202.999 164.793 203.38 166.238 204.143C167.683 204.905 168.822 206.005 169.654 207.443C170.486 208.859 170.902 210.504 170.902 212.378C170.902 214.251 170.475 215.907 169.621 217.344C168.789 218.76 167.639 219.85 166.172 220.612C164.727 221.375 163.107 221.756 161.312 221.756ZM161.312 216.92C162.385 216.92 163.293 216.528 164.038 215.743C164.804 214.959 165.187 213.837 165.187 212.378C165.187 210.918 164.815 209.796 164.071 209.012C163.348 208.227 162.451 207.835 161.378 207.835C160.283 207.835 159.375 208.227 158.652 209.012C157.93 209.774 157.568 210.896 157.568 212.378C157.568 213.837 157.919 214.959 158.619 215.743C159.342 216.528 160.239 216.92 161.312 216.92Z" fill="#BEC0C4"/>
<path d="M185.046 203.064C187.192 203.064 188.9 203.762 190.17 205.156C191.461 206.528 192.107 208.424 192.107 210.842V221.495H186.524V211.593C186.524 210.373 186.207 209.426 185.572 208.75C184.937 208.075 184.083 207.737 183.01 207.737C181.938 207.737 181.084 208.075 180.449 208.75C179.814 209.426 179.496 210.373 179.496 211.593V221.495H173.881V203.261H179.496V205.679C180.066 204.873 180.832 204.241 181.795 203.783C182.759 203.304 183.842 203.064 185.046 203.064Z" fill="#BEC0C4"/>
<path d="M205.205 207.901H202.184V221.495H196.568V207.901H194.532V203.261H196.568V202.738C196.568 200.494 197.214 198.795 198.505 197.64C199.797 196.464 201.691 195.875 204.187 195.875C204.603 195.875 204.909 195.886 205.106 195.908V200.646C204.034 200.581 203.278 200.733 202.84 201.104C202.402 201.474 202.184 202.139 202.184 203.097V203.261H205.205V207.901Z" fill="#BEC0C4"/>
<path d="M225.118 212.083C225.118 212.606 225.085 213.151 225.019 213.717H212.31C212.397 214.85 212.759 215.721 213.394 216.331C214.05 216.92 214.85 217.214 215.791 217.214C217.192 217.214 218.166 216.626 218.714 215.449H224.691C224.384 216.647 223.826 217.726 223.016 218.684C222.228 219.643 221.232 220.394 220.027 220.939C218.823 221.484 217.477 221.756 215.988 221.756C214.193 221.756 212.595 221.375 211.193 220.612C209.792 219.85 208.697 218.76 207.909 217.344C207.121 215.928 206.727 214.273 206.727 212.378C206.727 210.482 207.11 208.827 207.876 207.411C208.665 205.995 209.759 204.905 211.16 204.143C212.562 203.38 214.171 202.999 215.988 202.999C217.761 202.999 219.338 203.369 220.717 204.11C222.096 204.851 223.169 205.907 223.935 207.28C224.724 208.652 225.118 210.253 225.118 212.083ZM219.371 210.613C219.371 209.654 219.042 208.892 218.385 208.326C217.729 207.759 216.908 207.476 215.922 207.476C214.981 207.476 214.182 207.748 213.525 208.293C212.89 208.837 212.496 209.611 212.343 210.613H219.371Z" fill="#BEC0C4"/>
<path d="M233.696 206.3C234.353 205.297 235.174 204.513 236.159 203.947C237.144 203.359 238.239 203.064 239.443 203.064V208.979H237.9C236.498 208.979 235.447 209.284 234.747 209.894C234.046 210.482 233.696 211.528 233.696 213.031V221.495H228.08V203.261H233.696V206.3Z" fill="#BEC0C4"/>
<path d="M259.401 212.083C259.401 212.606 259.368 213.151 259.303 213.717H246.593C246.681 214.85 247.042 215.721 247.677 216.331C248.334 216.92 249.133 217.214 250.075 217.214C251.476 217.214 252.45 216.626 252.997 215.449H258.974C258.668 216.647 258.109 217.726 257.299 218.684C256.511 219.643 255.515 220.394 254.311 220.939C253.107 221.484 251.76 221.756 250.272 221.756C248.476 221.756 246.878 221.375 245.477 220.612C244.076 219.85 242.981 218.76 242.193 217.344C241.405 215.928 241.011 214.273 241.011 212.378C241.011 210.482 241.394 208.827 242.16 207.411C242.948 205.995 244.043 204.905 245.444 204.143C246.845 203.38 248.454 202.999 250.272 202.999C252.045 202.999 253.621 203.369 255.001 204.11C256.38 204.851 257.453 205.907 258.219 207.28C259.007 208.652 259.401 210.253 259.401 212.083ZM253.654 210.613C253.654 209.654 253.326 208.892 252.669 208.326C252.012 207.759 251.191 207.476 250.206 207.476C249.264 207.476 248.465 207.748 247.809 208.293C247.174 208.837 246.78 209.611 246.626 210.613H253.654Z" fill="#BEC0C4"/>
<path d="M273.53 203.064C275.675 203.064 277.383 203.762 278.653 205.156C279.944 206.528 280.59 208.424 280.59 210.842V221.495H275.007V211.593C275.007 210.373 274.69 209.426 274.055 208.75C273.42 208.075 272.566 207.737 271.493 207.737C270.421 207.737 269.567 208.075 268.932 208.75C268.297 209.426 267.979 210.373 267.979 211.593V221.495H262.364V203.261H267.979V205.679C268.549 204.873 269.315 204.241 270.278 203.783C271.242 203.304 272.325 203.064 273.53 203.064Z" fill="#BEC0C4"/>
<path d="M283.376 212.378C283.376 210.482 283.759 208.827 284.525 207.411C285.314 205.995 286.397 204.905 287.777 204.143C289.178 203.38 290.776 202.999 292.571 202.999C294.87 202.999 296.786 203.598 298.318 204.796C299.873 205.995 300.891 207.683 301.373 209.861H295.396C294.892 208.467 293.918 207.77 292.473 207.77C291.444 207.77 290.623 208.173 290.01 208.979C289.397 209.763 289.09 210.896 289.09 212.378C289.09 213.859 289.397 215.003 290.01 215.809C290.623 216.593 291.444 216.985 292.473 216.985C293.918 216.985 294.892 216.288 295.396 214.894H301.373C300.891 217.029 299.873 218.706 298.318 219.926C296.764 221.146 294.848 221.756 292.571 221.756C290.776 221.756 289.178 221.375 287.777 220.612C286.397 219.85 285.314 218.76 284.525 217.344C283.759 215.928 283.376 214.273 283.376 212.378Z" fill="#BEC0C4"/>
<path d="M321.65 212.083C321.65 212.606 321.618 213.151 321.552 213.717H308.843C308.93 214.85 309.292 215.721 309.926 216.331C310.583 216.92 311.382 217.214 312.324 217.214C313.725 217.214 314.699 216.626 315.247 215.449H321.224C320.917 216.647 320.359 217.726 319.549 218.684C318.761 219.643 317.764 220.394 316.56 220.939C315.356 221.484 314.01 221.756 312.521 221.756C310.726 221.756 309.127 221.375 307.726 220.612C306.325 219.85 305.23 218.76 304.442 217.344C303.654 215.928 303.26 214.273 303.26 212.378C303.26 210.482 303.643 208.827 304.409 207.411C305.197 205.995 306.292 204.905 307.693 204.143C309.095 203.38 310.704 202.999 312.521 202.999C314.294 202.999 315.871 203.369 317.25 204.11C318.629 204.851 319.702 205.907 320.468 207.28C321.256 208.652 321.65 210.253 321.65 212.083ZM315.903 210.613C315.903 209.654 315.575 208.892 314.918 208.326C314.261 207.759 313.44 207.476 312.455 207.476C311.514 207.476 310.715 207.748 310.058 208.293C309.423 208.837 309.029 209.611 308.876 210.613H315.903Z" fill="#BEC0C4"/>
<path d="M345.924 217.443H337.319L335.94 221.495H330.062L338.403 198.555H344.906L353.247 221.495H347.303L345.924 217.443ZM344.479 213.129L341.622 204.731L338.797 213.129H344.479Z" fill="#BEC0C4"/>
<path d="M361.401 206.3C362.058 205.297 362.879 204.513 363.865 203.947C364.85 203.359 365.944 203.064 367.149 203.064V208.979H365.605C364.204 208.979 363.153 209.284 362.452 209.894C361.752 210.482 361.401 211.528 361.401 213.031V221.495H355.786V203.261H361.401V206.3Z" fill="#BEC0C4"/>
<path d="M393.215 203.064C395.492 203.064 397.298 203.751 398.634 205.123C399.991 206.496 400.67 208.402 400.67 210.842V221.495H395.087V211.593C395.087 210.417 394.77 209.513 394.135 208.881C393.522 208.227 392.668 207.901 391.573 207.901C390.478 207.901 389.614 208.227 388.979 208.881C388.366 209.513 388.059 210.417 388.059 211.593V221.495H382.476V211.593C382.476 210.417 382.159 209.513 381.524 208.881C380.911 208.227 380.057 207.901 378.962 207.901C377.868 207.901 377.003 208.227 376.368 208.881C375.755 209.513 375.448 210.417 375.448 211.593V221.495H369.833V203.261H375.448V205.548C376.018 204.785 376.762 204.186 377.682 203.751C378.601 203.293 379.641 203.064 380.801 203.064C382.181 203.064 383.407 203.359 384.48 203.947C385.574 204.535 386.428 205.374 387.041 206.463C387.676 205.461 388.541 204.644 389.635 204.012C390.73 203.38 391.923 203.064 393.215 203.064Z" fill="#BEC0C4"/>
<path d="M421.871 212.083C421.871 212.606 421.839 213.151 421.773 213.717H409.064C409.151 214.85 409.513 215.721 410.147 216.331C410.804 216.92 411.603 217.214 412.545 217.214C413.946 217.214 414.92 216.626 415.468 215.449H421.445C421.138 216.647 420.58 217.726 419.77 218.684C418.981 219.643 417.985 220.394 416.781 220.939C415.577 221.484 414.231 221.756 412.742 221.756C410.947 221.756 409.348 221.375 407.947 220.612C406.546 219.85 405.451 218.76 404.663 217.344C403.875 215.928 403.481 214.273 403.481 212.378C403.481 210.482 403.864 208.827 404.63 207.411C405.418 205.995 406.513 204.905 407.914 204.143C409.315 203.38 410.925 202.999 412.742 202.999C414.515 202.999 416.092 203.369 417.471 204.11C418.85 204.851 419.923 205.907 420.689 207.28C421.477 208.652 421.871 210.253 421.871 212.083ZM416.124 210.613C416.124 209.654 415.796 208.892 415.139 208.326C414.482 207.759 413.661 207.476 412.676 207.476C411.735 207.476 410.936 207.748 410.279 208.293C409.644 208.837 409.25 209.611 409.096 210.613H416.124Z" fill="#BEC0C4"/>
<path d="M436 203.064C438.145 203.064 439.853 203.762 441.123 205.156C442.415 206.528 443.06 208.424 443.06 210.842V221.495H437.478V211.593C437.478 210.373 437.16 209.426 436.525 208.75C435.89 208.075 435.036 207.737 433.964 207.737C432.891 207.737 432.037 208.075 431.402 208.75C430.767 209.426 430.45 210.373 430.45 211.593V221.495H424.834V203.261H430.45V205.679C431.019 204.873 431.785 204.241 432.749 203.783C433.712 203.304 434.796 203.064 436 203.064Z" fill="#BEC0C4"/>
<path d="M449.787 201.365C448.802 201.365 447.992 201.082 447.357 200.516C446.744 199.927 446.437 199.209 446.437 198.359C446.437 197.488 446.744 196.769 447.357 196.202C447.992 195.614 448.802 195.32 449.787 195.32C450.75 195.32 451.539 195.614 452.152 196.202C452.786 196.769 453.104 197.488 453.104 198.359C453.104 199.209 452.786 199.927 452.152 200.516C451.539 201.082 450.75 201.365 449.787 201.365ZM452.578 203.261V221.495H446.963V203.261H452.578Z" fill="#BEC0C4"/>
<path d="M455.532 212.345C455.532 210.471 455.882 208.827 456.582 207.411C457.305 205.995 458.279 204.905 459.505 204.143C460.731 203.38 462.1 202.999 463.61 202.999C464.902 202.999 466.03 203.261 466.993 203.783C467.978 204.306 468.733 204.992 469.259 205.842V203.261H474.875V221.495H469.259V218.913C468.712 219.763 467.945 220.449 466.96 220.972C465.997 221.495 464.869 221.756 463.577 221.756C462.089 221.756 460.731 221.375 459.505 220.612C458.279 219.828 457.305 218.728 456.582 217.312C455.882 215.874 455.532 214.218 455.532 212.345ZM469.259 212.378C469.259 210.983 468.865 209.883 468.077 209.077C467.31 208.271 466.369 207.868 465.252 207.868C464.136 207.868 463.183 208.271 462.395 209.077C461.629 209.861 461.246 210.951 461.246 212.345C461.246 213.739 461.629 214.85 462.395 215.678C463.183 216.484 464.136 216.887 465.252 216.887C466.369 216.887 467.31 216.484 468.077 215.678C468.865 214.872 469.259 213.772 469.259 212.378Z" fill="#BEC0C4"/>
<path d="M480.218 198.555H485.965L482.287 207.313H478.51L480.218 198.555Z" fill="#BEC0C4"/>
<path d="M488.509 217.018C489.253 216.43 489.592 216.157 489.527 216.201C491.672 214.436 493.358 212.987 494.584 211.855C495.832 210.722 496.883 209.535 497.737 208.293C498.591 207.051 499.018 205.842 499.018 204.666C499.018 203.772 498.81 203.075 498.394 202.574C497.978 202.073 497.354 201.823 496.522 201.823C495.69 201.823 495.033 202.139 494.551 202.77C494.092 203.38 493.862 204.252 493.862 205.385H488.443C488.487 203.533 488.881 201.986 489.625 200.744C490.392 199.503 491.388 198.588 492.614 197.999C493.862 197.411 495.241 197.117 496.752 197.117C499.357 197.117 501.316 197.782 502.63 199.11C503.966 200.439 504.633 202.171 504.633 204.306C504.633 206.637 503.834 208.805 502.236 210.809C500.638 212.791 498.602 214.73 496.128 216.626H504.995V221.168H488.509V217.018Z" fill="#BEC0C4"/>
<path d="M507.27 217.018C508.014 216.43 508.354 216.157 508.288 216.201C510.434 214.436 512.119 212.987 513.346 211.855C514.593 210.722 515.644 209.535 516.498 208.293C517.352 207.051 517.779 205.842 517.779 204.666C517.779 203.772 517.571 203.075 517.155 202.574C516.739 202.073 516.115 201.823 515.283 201.823C514.451 201.823 513.794 202.139 513.313 202.77C512.853 203.38 512.623 204.252 512.623 205.385H507.204C507.248 203.533 507.642 201.986 508.387 200.744C509.153 199.503 510.149 198.588 511.375 197.999C512.623 197.411 514.002 197.117 515.513 197.117C518.118 197.117 520.078 197.782 521.391 199.11C522.727 200.439 523.395 202.171 523.395 204.306C523.395 206.637 522.596 208.805 520.997 210.809C519.399 212.791 517.363 214.73 514.889 216.626H523.756V221.168H507.27V217.018Z" fill="#BEC0C4"/>
<path d="M26.1255 95.7938H51.007V120.675H26.1255V95.7938Z" fill="#D50E50"/>
<path fill-rule="evenodd" clip-rule="evenodd" d="M24.8813 94.5498H52.251V121.919H24.8813V94.5498ZM27.3695 97.0379V119.431H49.7629V97.0379H27.3695Z" fill="black"/>
<path d="M51.0073 95.7938H75.8888V120.675H51.0073V95.7938Z" fill="#D50E50"/>
<path fill-rule="evenodd" clip-rule="evenodd" d="M49.7632 94.5498H77.1329V121.919H49.7632V94.5498ZM52.2513 97.0379V119.431H74.6447V97.0379H52.2513Z" fill="black"/>
<path d="M51.0073 70.9123H75.8888V95.7938H51.0073V70.9123Z" fill="#D50E50"/>
<path fill-rule="evenodd" clip-rule="evenodd" d="M49.7632 69.6682H77.1329V97.0379H49.7632V69.6682ZM52.2513 72.1564V94.5498H74.6447V72.1564H52.2513Z" fill="black"/>
<path d="M51.0073 46.0308H75.8888V70.9123H51.0073V46.0308Z" fill="#D50E50"/>
<path fill-rule="evenodd" clip-rule="evenodd" d="M49.7632 44.7867H77.1329V72.1564H49.7632V44.7867ZM52.2513 47.2749V69.6682H74.6447V47.2749H52.2513Z" fill="black"/>
<path d="M100.77 46.0308H125.652V70.9123H100.77V46.0308Z" fill="#FBAD18"/>
<path fill-rule="evenodd" clip-rule="evenodd" d="M99.5259 44.7867H126.896V72.1564H99.5259V44.7867ZM102.014 47.2749V69.6682H124.407V47.2749H102.014Z" fill="black"/>
<path d="M113.211 70.9123H138.092V95.7938H113.211V70.9123Z" fill="#FBAD18"/>
<path fill-rule="evenodd" clip-rule="evenodd" d="M111.967 69.6682H139.336V97.0379H111.967V69.6682ZM114.455 72.1564V94.5498H136.848V72.1564H114.455Z" fill="black"/>
<path d="M125.652 95.7938H150.533V120.675H125.652V95.7938Z" fill="#FBAD18"/>
<path fill-rule="evenodd" clip-rule="evenodd" d="M124.408 94.5498H151.777V121.919H124.408V94.5498ZM126.896 97.0379V119.431H149.289V97.0379H126.896Z" fill="black"/>
<path d="M138.092 120.675H162.974V145.557H138.092V120.675Z" fill="#FBAD18"/>
<path fill-rule="evenodd" clip-rule="evenodd" d="M136.848 119.431H164.218V146.801H136.848V119.431ZM139.336 121.919V144.313H161.73V121.919H139.336Z" fill="black"/>
<path d="M150.533 95.7938H175.415V120.675H150.533V95.7938Z" fill="#FBAD18"/>
<path fill-rule="evenodd" clip-rule="evenodd" d="M149.289 94.5498H176.659V121.919H149.289V94.5498ZM151.777 97.0379V119.431H174.171V97.0379H151.777Z" fill="black"/>
<path d="M138.092 145.557H162.974V170.438H138.092V145.557Z" fill="#FBAD18"/>
<path fill-rule="evenodd" clip-rule="evenodd" d="M136.848 144.313H164.218V171.682H136.848V144.313ZM139.336 146.801V169.194H161.73V146.801H139.336Z" fill="black"/>
<path d="M162.974 70.9123H187.856V95.7938H162.974V70.9123Z" fill="#FBAD18"/>
<path fill-rule="evenodd" clip-rule="evenodd" d="M161.73 69.6682H189.1V97.0379H161.73V69.6682ZM164.218 72.1564V94.5498H186.611V72.1564H164.218Z" fill="black"/>
<path d="M175.415 46.0308H200.296V70.9123H175.415V46.0308Z" fill="#FBAD18"/>
<path fill-rule="evenodd" clip-rule="evenodd" d="M174.17 44.7867H201.54V72.1564H174.17V44.7867ZM176.659 47.2749V69.6682H199.052V47.2749H176.659Z" fill="black"/>
<path d="M225.178 46.0308H250.059V70.9123H225.178V46.0308Z" fill="#20A6C1"/>
<path fill-rule="evenodd" clip-rule="evenodd" d="M223.934 44.7867H251.303V72.1564H223.934V44.7867ZM226.422 47.2749V69.6682H248.815V47.2749H226.422Z" fill="black"/>
<path d="M324.704 46.0308H349.585V70.9123H324.704V46.0308Z" fill="#93268F"/>
<path fill-rule="evenodd" clip-rule="evenodd" d="M323.46 44.7867H350.83V72.1564H323.46V44.7867ZM325.948 47.2749V69.6682H348.341V47.2749H325.948Z" fill="black"/>
<path d="M225.178 70.9123H250.059V95.7938H225.178V70.9123Z" fill="#20A6C1"/>
<path fill-rule="evenodd" clip-rule="evenodd" d="M223.934 69.6682H251.303V97.0379H223.934V69.6682ZM226.422 72.1564V94.5498H248.815V72.1564H226.422Z" fill="black"/>
<path d="M324.704 70.9123H349.585V95.7938H324.704V70.9123Z" fill="#93268F"/>
<path fill-rule="evenodd" clip-rule="evenodd" d="M323.46 69.6682H350.83V97.0379H323.46V69.6682ZM325.948 72.1564V94.5498H348.341V72.1564H325.948Z" fill="black"/>
<path d="M225.178 95.7938H250.059V120.675H225.178V95.7938Z" fill="#20A6C1"/>
<path fill-rule="evenodd" clip-rule="evenodd" d="M223.934 94.5498H251.303V121.919H223.934V94.5498ZM226.422 97.0379V119.431H248.815V97.0379H226.422Z" fill="black"/>
<path d="M324.704 95.7938H349.585V120.675H324.704V95.7938Z" fill="#93268F"/>
<path fill-rule="evenodd" clip-rule="evenodd" d="M323.46 94.5498H350.83V121.919H323.46V94.5498ZM325.948 97.0379V119.431H348.341V97.0379H325.948Z" fill="black"/>
<path d="M225.178 120.675H250.059V145.557H225.178V120.675Z" fill="#20A6C1"/>
<path fill-rule="evenodd" clip-rule="evenodd" d="M223.934 119.431H251.303V146.801H223.934V119.431ZM226.422 121.919V144.313H248.815V121.919H226.422Z" fill="black"/>
<path d="M324.704 120.675H349.585V145.557H324.704V120.675Z" fill="#93268F"/>
<path fill-rule="evenodd" clip-rule="evenodd" d="M323.46 119.431H350.83V146.801H323.46V119.431ZM325.948 121.919V144.313H348.341V121.919H325.948Z" fill="black"/>
<path d="M225.178 145.557H250.059V170.438H225.178V145.557Z" fill="#20A6C1"/>
<path fill-rule="evenodd" clip-rule="evenodd" d="M223.934 144.313H251.303V171.682H223.934V144.313ZM226.422 146.801V169.194H248.815V146.801H226.422Z" fill="black"/>
<path d="M324.704 145.557H349.585V170.438H324.704V145.557Z" fill="#93268F"/>
<path fill-rule="evenodd" clip-rule="evenodd" d="M323.46 144.313H350.83V171.682H323.46V144.313ZM325.948 146.801V169.194H348.341V146.801H325.948Z" fill="black"/>
<path d="M250.059 145.557H274.941V170.438H250.059V145.557Z" fill="#20A6C1"/>
<path fill-rule="evenodd" clip-rule="evenodd" d="M248.815 144.313H276.185V171.682H248.815V144.313ZM251.303 146.801V169.194H273.696V146.801H251.303Z" fill="black"/>
<path d="M349.585 145.557H374.467V170.438H349.585V145.557Z" fill="#93268F"/>
<path fill-rule="evenodd" clip-rule="evenodd" d="M348.341 144.313H375.711V171.682H348.341V144.313ZM350.829 146.801V169.194H373.223V146.801H350.829Z" fill="black"/>
<path d="M274.941 145.557H299.822V170.438H274.941V145.557Z" fill="#20A6C1"/>
<path fill-rule="evenodd" clip-rule="evenodd" d="M273.697 144.313H301.066V171.682H273.697V144.313ZM276.185 146.801V169.194H298.578V146.801H276.185Z" fill="black"/>
<path d="M374.467 145.557H399.348V170.438H374.467V145.557Z" fill="#93268F"/>
<path fill-rule="evenodd" clip-rule="evenodd" d="M373.223 144.313H400.592V171.682H373.223V144.313ZM375.711 146.801V169.194H398.104V146.801H375.711Z" fill="black"/>
<path d="M424.23 145.557H449.111V170.438H424.23V145.557Z" fill="#4F9326"/>
<path fill-rule="evenodd" clip-rule="evenodd" d="M422.986 144.313H450.356V171.682H422.986V144.313ZM425.474 146.801V169.194H447.867V146.801H425.474Z" fill="black"/>
<path d="M498.875 145.557H523.756V170.438H498.875V145.557Z" fill="#4F9326"/>
<path fill-rule="evenodd" clip-rule="evenodd" d="M497.63 144.313H525V171.682H497.63V144.313ZM500.119 146.801V169.194H522.512V146.801H500.119Z" fill="black"/>
<path d="M274.941 120.675H299.822V145.557H274.941V120.675Z" fill="#20A6C1"/>
<path fill-rule="evenodd" clip-rule="evenodd" d="M273.697 119.431H301.066V146.801H273.697V119.431ZM276.185 121.919V144.313H298.578V121.919H276.185Z" fill="black"/>
<path d="M374.467 120.675H399.348V145.557H374.467V120.675Z" fill="#93268F"/>
<path fill-rule="evenodd" clip-rule="evenodd" d="M373.223 119.431H400.592V146.801H373.223V119.431ZM375.711 121.919V144.313H398.104V121.919H375.711Z" fill="black"/>
<path d="M424.23 120.675H449.111V145.557H424.23V120.675Z" fill="#4F9326"/>
<path fill-rule="evenodd" clip-rule="evenodd" d="M422.986 119.431H450.356V146.801H422.986V119.431ZM425.474 121.919V144.313H447.867V121.919H425.474Z" fill="black"/>
<path d="M498.875 120.675H523.756V145.557H498.875V120.675Z" fill="#4F9326"/>
<path fill-rule="evenodd" clip-rule="evenodd" d="M497.63 119.431H525V146.801H497.63V119.431ZM500.119 121.919V144.313H522.512V121.919H500.119Z" fill="black"/>
<path d="M374.467 95.7938H399.348V120.675H374.467V95.7938Z" fill="#93268F"/>
<path fill-rule="evenodd" clip-rule="evenodd" d="M373.223 94.5498H400.592V121.919H373.223V94.5498ZM375.711 97.0379V119.431H398.104V97.0379H375.711Z" fill="black"/>
<path d="M424.23 95.7938H449.111V120.675H424.23V95.7938Z" fill="#4F9326"/>
<path fill-rule="evenodd" clip-rule="evenodd" d="M422.986 94.5498H450.356V121.919H422.986V94.5498ZM425.474 97.0379V119.431H447.867V97.0379H425.474Z" fill="black"/>
<path d="M498.875 95.7938H523.756V120.675H498.875V95.7938Z" fill="#4F9326"/>
<path fill-rule="evenodd" clip-rule="evenodd" d="M497.63 94.5498H525V121.919H497.63V94.5498ZM500.119 97.0379V119.431H522.512V97.0379H500.119Z" fill="black"/>
<path d="M250.059 46.0308H274.941V70.9123H250.059V46.0308Z" fill="#20A6C1"/>
<path fill-rule="evenodd" clip-rule="evenodd" d="M248.815 44.7867H276.185V72.1564H248.815V44.7867ZM251.303 47.2749V69.6682H273.696V47.2749H251.303Z" fill="black"/>
<path d="M349.585 46.0308H374.467V70.9123H349.585V46.0308Z" fill="#93268F"/>
<path fill-rule="evenodd" clip-rule="evenodd" d="M348.341 44.7867H375.711V72.1564H348.341V44.7867ZM350.829 47.2749V69.6682H373.223V47.2749H350.829Z" fill="black"/>
<path d="M274.941 46.0308H299.822V70.9123H274.941V46.0308Z" fill="#20A6C1"/>
<path fill-rule="evenodd" clip-rule="evenodd" d="M273.697 44.7867H301.066V72.1564H273.697V44.7867ZM276.185 47.2749V69.6682H298.578V47.2749H276.185Z" fill="black"/>
<path d="M374.467 46.0308H399.348V70.9123H374.467V46.0308Z" fill="#93268F"/>
<path fill-rule="evenodd" clip-rule="evenodd" d="M373.223 44.7867H400.592V72.1564H373.223V44.7867ZM375.711 47.2749V69.6682H398.104V47.2749H375.711Z" fill="black"/>
<path d="M424.23 46.0308H449.111V70.9123H424.23V46.0308Z" fill="#4F9326"/>
<path fill-rule="evenodd" clip-rule="evenodd" d="M422.986 44.7867H450.356V72.1564H422.986V44.7867ZM425.474 47.2749V69.6682H447.867V47.2749H425.474Z" fill="black"/>
<path d="M498.875 46.0308H523.756V70.9123H498.875V46.0308Z" fill="#4F9326"/>
<path fill-rule="evenodd" clip-rule="evenodd" d="M497.63 44.7867H525V72.1564H497.63V44.7867ZM500.119 47.2749V69.6682H522.512V47.2749H500.119Z" fill="black"/>
<path d="M274.941 70.9123H299.822V95.7938H274.941V70.9123Z" fill="#20A6C1"/>
<path fill-rule="evenodd" clip-rule="evenodd" d="M273.697 69.6682H301.066V97.0379H273.697V69.6682ZM276.185 72.1564V94.5498H298.578V72.1564H276.185Z" fill="black"/>
<path d="M374.467 70.9123H399.348V95.7938H374.467V70.9123Z" fill="#93268F"/>
<path fill-rule="evenodd" clip-rule="evenodd" d="M373.223 69.6682H400.592V97.0379H373.223V69.6682ZM375.711 72.1564V94.5498H398.104V72.1564H375.711Z" fill="black"/>
<path d="M424.23 70.9123H449.111V95.7938H424.23V70.9123Z" fill="#4F9326"/>
<path fill-rule="evenodd" clip-rule="evenodd" d="M422.986 69.6682H450.356V97.0379H422.986V69.6682ZM425.474 72.1564V94.5498H447.867V72.1564H425.474Z" fill="black"/>
<path d="M498.875 70.9123H523.756V95.7938H498.875V70.9123Z" fill="#4F9326"/>
<path fill-rule="evenodd" clip-rule="evenodd" d="M497.63 69.6682H525V97.0379H497.63V69.6682ZM500.119 72.1564V94.5498H522.512V72.1564H500.119Z" fill="black"/>
<path d="M449.111 70.9123H473.993V95.7938H449.111V70.9123Z" fill="#4F9326"/>
<path fill-rule="evenodd" clip-rule="evenodd" d="M447.867 69.6682H475.237V97.0379H447.867V69.6682ZM450.355 72.1564V94.5498H472.749V72.1564H450.355Z" fill="black"/>
<path d="M461.552 95.7938H486.434V120.675H461.552V95.7938Z" fill="#4F9326"/>
<path fill-rule="evenodd" clip-rule="evenodd" d="M460.308 94.5498H487.678V121.919H460.308V94.5498ZM462.796 97.0379V119.431H485.19V97.0379H462.796Z" fill="black"/>
<path d="M473.993 120.675H498.874V145.557H473.993V120.675Z" fill="#4F9326"/>
<path fill-rule="evenodd" clip-rule="evenodd" d="M472.749 119.431H500.119V146.801H472.749V119.431ZM475.237 121.919V144.313H497.631V121.919H475.237Z" fill="black"/>
<path d="M26.1255 46.0308H51.007V70.9123H26.1255V46.0308Z" fill="#D50E50"/>
<path fill-rule="evenodd" clip-rule="evenodd" d="M24.8813 44.7867H52.251V72.1564H24.8813V44.7867ZM27.3695 47.2749V69.6682H49.7629V47.2749H27.3695Z" fill="black"/>
<path d="M1.24414 46.0308H26.1257V70.9123H1.24414V46.0308Z" fill="#D50E50"/>
<path fill-rule="evenodd" clip-rule="evenodd" d="M0 44.7867H27.3697V72.1564H0V44.7867ZM2.48815 47.2749V69.6682H24.8815V47.2749H2.48815Z" fill="black"/>
<path d="M1.24414 70.9123H26.1257V95.7938H1.24414V70.9123Z" fill="#D50E50"/>
<path fill-rule="evenodd" clip-rule="evenodd" d="M0 69.6682H27.3697V97.0379H0V69.6682ZM2.48815 72.1564V94.5498H24.8815V72.1564H2.48815Z" fill="black"/>
<path d="M1.24414 95.7938H26.1257V120.675H1.24414V95.7938Z" fill="#D50E50"/>
<path fill-rule="evenodd" clip-rule="evenodd" d="M0 94.5498H27.3697V121.919H0V94.5498ZM2.48815 97.0379V119.431H24.8815V97.0379H2.48815Z" fill="black"/>
<path d="M1.24414 120.675H26.1257V145.557H1.24414V120.675Z" fill="#D50E50"/>
<path fill-rule="evenodd" clip-rule="evenodd" d="M0 119.431H27.3697V146.801H0V119.431ZM2.48815 121.919V144.313H24.8815V121.919H2.48815Z" fill="black"/>
<path d="M1.24414 145.557H26.1257V170.438H1.24414V145.557Z" fill="#D50E50"/>
<path fill-rule="evenodd" clip-rule="evenodd" d="M0 144.313H27.3697V171.682H0V144.313ZM2.48815 146.801V169.194H24.8815V146.801H2.48815Z" fill="black"/>
<path d="M32.3462 102.014H38.5666V108.235H32.3462V102.014Z" fill="white"/>
<path fill-rule="evenodd" clip-rule="evenodd" d="M31.1021 100.77H39.8106V109.479H31.1021V100.77ZM33.5902 103.258V106.991H37.3224V103.258H33.5902Z" fill="black"/>
<path d="M511.315 52.2512H517.535V58.4716H511.315V52.2512Z" fill="white"/>
<path fill-rule="evenodd" clip-rule="evenodd" d="M510.071 51.0071H518.78V59.7156H510.071V51.0071ZM512.559 53.4953V57.2275H516.292V53.4953H512.559Z" fill="black"/>
<g clip-path="url(#clip0_335_825)">
<path d="M71.858 11.6943V11.2962L72.5423 11.2278C72.7538 11.2278 72.7787 11.0598 72.7102 10.8608C72.505 10.2387 72.2561 9.54206 72.0882 9.13151H69.8675C69.6809 9.75355 69.4632 10.3756 69.3326 10.8608C69.2579 11.0909 69.2828 11.2153 69.5254 11.2402L70.2034 11.2962V11.6943H67.6406V11.2962C68.2253 11.2589 68.3435 11.1842 68.5239 10.755C69.0962 9.51096 70.2034 6.34478 70.869 4.37292H72.4054C73.0275 6.18928 74.1596 9.41143 74.7194 10.8048C74.8874 11.2029 75.0553 11.2838 75.6276 11.2962V11.6943H71.858ZM71.0121 5.80983C70.7944 6.43187 70.39 7.78169 70.1039 8.62766H71.97C71.6839 7.93098 71.2298 6.51273 71.0121 5.80983Z" fill="#FC4C02"/>
<path d="M76.9276 5.43038C76.9276 4.90787 76.8343 4.85189 76.063 4.80835V4.40402H79.7579V4.80835C78.9803 4.80835 78.887 4.89543 78.887 5.43038V10.6679C78.887 11.2029 78.9803 11.29 79.7579 11.29V11.6881H76.063V11.29C76.8343 11.2527 76.9276 11.1967 76.9276 10.6679V5.43038ZM81.5307 4.86433L80.8651 4.80835V4.41646H83.9318V4.80835C83.49 4.79156 83.0543 4.91574 82.6877 5.16291C81.8904 5.78049 81.1494 6.46741 80.4732 7.21563C81.2649 8.46024 82.1574 9.63777 83.1418 10.7364C83.3826 11.0166 83.6909 11.2307 84.0375 11.3584L83.9878 11.7814H83.2164C81.7111 11.7814 81.1388 11.5575 80.3861 10.5373C79.8302 9.76972 79.3372 8.95842 78.9119 8.11137V8.02428C79.8699 7.12021 80.7696 6.15618 81.6053 5.13803C81.7235 5.00118 81.6987 4.88299 81.5307 4.86433Z" fill="#FC4C02"/>
<path d="M87.3031 10.6679C87.3031 11.2029 87.4026 11.29 88.1739 11.29V11.6881H84.479V11.29C85.2566 11.2527 85.3499 11.1967 85.3499 10.6679V5.43038C85.3499 4.90787 85.2566 4.85189 84.479 4.80835V4.40402H88.1739V4.80835C87.4026 4.80835 87.3031 4.89543 87.3031 5.43038V10.6679Z" fill="#FC4C02"/>
<path d="M92.7771 11.6943V11.2962L93.4552 11.2278C93.6729 11.2278 93.6977 11.0598 93.6231 10.8608C93.4241 10.2387 93.169 9.54206 93.0011 9.13151H90.8177C90.6249 9.75355 90.4134 10.3756 90.2828 10.8608C90.2081 11.0909 90.233 11.2153 90.4694 11.2402L91.1536 11.2962V11.6943H88.5908V11.2962C89.1693 11.2589 89.2937 11.1842 89.4679 10.755C90.0402 9.51096 91.1536 6.34478 91.8192 4.37292H93.3556C93.9777 6.18928 95.1098 9.41143 95.6696 10.8048C95.8376 11.2029 96.0055 11.2838 96.5778 11.2962V11.6943H92.7771ZM91.9312 5.80983H91.8938C91.6823 6.43187 91.2718 7.78169 90.9919 8.62766H92.858C92.5967 7.93098 92.1489 6.51273 91.9312 5.80983Z" fill="#FC4C02"/>
<path d="M102.555 11.6943C101.255 9.766 99.9117 7.82524 98.5494 5.8907H98.4997V9.00089C98.4908 9.56557 98.5116 10.1303 98.5618 10.6928C98.6365 11.3957 99.0408 11.2651 99.6566 11.3149V11.713H96.9072V11.3149C97.5293 11.2464 97.7283 11.3149 97.7905 10.6928C97.8416 10.1304 97.8603 9.56548 97.8465 9.00089V5.44283C97.8465 4.90788 97.7532 4.8208 96.9757 4.8208V4.41647H99.7064C100.851 6.08976 101.983 7.63863 103.128 9.27459H103.177V7.12234C103.193 6.56589 103.172 6.00902 103.115 5.45528C103.059 4.73993 102.636 4.87678 102.02 4.83324V4.42891H104.739V4.83324C104.154 4.89544 103.961 4.83324 103.88 5.45528C103.843 5.83472 103.831 6.23282 103.831 7.13478V11.7068L102.555 11.6943Z" fill="#FC4C02"/>
<path d="M114.934 9.28702L114.791 11.3709C113.961 11.7356 113.059 11.9078 112.153 11.8747C109.13 11.8747 108.042 10.332 108.042 8.14247C107.983 7.12568 108.327 6.12659 109 5.36197C109.665 4.6715 110.735 4.23608 112.359 4.23608C113.199 4.22161 114.033 4.38925 114.803 4.72749V6.63092H114.374C114.026 5.77251 113.752 4.76481 112.278 4.76481C110.237 4.76481 110.188 7.34004 110.188 7.97452C110.188 9.15639 110.443 11.4082 112.396 11.4082C113.64 11.4082 114.051 10.4813 114.492 9.32435L114.934 9.28702Z" fill="#FC4C02"/>
<path d="M123.711 8.06161C123.711 10.444 122.467 11.8747 119.848 11.8747C117.229 11.8747 115.998 10.444 115.998 8.06161C115.998 5.67921 117.242 4.22986 119.86 4.22986C122.479 4.22986 123.711 5.66677 123.711 8.06161ZM118.112 8.06161C118.112 9.47986 118.256 11.3709 119.829 11.3709C121.403 11.3709 121.546 9.50474 121.546 8.06161C121.546 6.61848 121.416 4.72749 119.817 4.72749C118.218 4.72749 118.131 6.73667 118.131 8.06161H118.112Z" fill="#FC4C02"/>
<path d="M127.518 10.444C127.518 11.1283 127.779 11.2029 128.675 11.2029C129.975 11.2029 130.043 10.5809 130.473 9.57938H130.914L130.796 11.6943H124.694V11.2962C125.453 11.2589 125.565 11.2029 125.565 10.6742V5.43038C125.565 4.90787 125.453 4.85189 124.694 4.80835V4.40402H128.532V4.80835C127.611 4.80835 127.518 4.89543 127.518 5.43038V10.444Z" fill="#FC4C02"/>
<path d="M134.435 10.444C134.435 11.1283 134.696 11.2029 135.592 11.2029C136.892 11.2029 136.96 10.5809 137.39 9.57938H137.831L137.713 11.6943H131.611V11.2962C132.37 11.2589 132.482 11.2029 132.482 10.6742V5.43038C132.482 4.90787 132.37 4.85189 131.611 4.80835V4.40402H135.449V4.80835C134.528 4.80835 134.435 4.89543 134.435 5.43038V10.444Z" fill="#FC4C02"/>
<path d="M139.417 5.43038C139.417 4.90787 139.324 4.85189 138.546 4.80835V4.40402H144.667V6.37588H144.238C143.852 5.3433 143.653 4.89543 142.521 4.89543H141.756C141.445 4.89543 141.364 4.9763 141.364 5.28731V7.62618H142.316C142.994 7.62618 143.162 7.43335 143.342 6.6558H143.772V9.14395H143.342C143.162 8.3664 142.994 8.13003 142.316 8.13003H141.364V10.4005C141.364 11.0598 141.42 11.1594 142.683 11.1594C143.946 11.1594 144.201 10.5373 144.63 9.43631H145.059L144.891 11.6508H138.546V11.2527C139.324 11.2153 139.417 11.1594 139.417 10.6306V5.43038Z" fill="#FC4C02"/>
<path d="M153.021 11.3584C152.132 11.6842 151.194 11.8587 150.247 11.8747C149.313 11.9234 148.382 11.7351 147.541 11.3273C146.683 10.7799 146.061 9.85308 146.061 8.09271C146.061 6.78021 146.564 4.22986 150.297 4.22986C151.191 4.20752 152.08 4.37721 152.903 4.72749V6.66825H152.474C152.157 5.80983 151.615 4.72749 150.309 4.72749C148.375 4.72749 148.194 6.96682 148.194 7.96208C148.194 8.65255 148.306 11.3833 150.284 11.3833C150.483 11.3888 150.681 11.3593 150.869 11.2962C151.031 11.2402 151.056 11.1034 151.056 10.9168V9.35545C151.056 8.84538 150.975 8.7894 150.129 8.73341V8.31665H153.618V8.73341C153.121 8.77695 152.996 8.83294 152.996 9.35545L153.021 11.3584Z" fill="#FC4C02"/>
<path d="M155.211 5.43038C155.211 4.90787 155.112 4.85189 154.34 4.80835V4.40402H160.486V6.37588H160.057C159.671 5.3433 159.472 4.89543 158.34 4.89543H157.575C157.264 4.89543 157.183 4.9763 157.183 5.28731V7.62618H158.135C158.819 7.62618 158.981 7.43335 159.161 6.6558H159.59V9.14395H159.161C158.981 8.3664 158.819 8.13003 158.135 8.13003H157.183V10.4005C157.183 11.0598 157.245 11.1594 158.508 11.1594C159.771 11.1594 160.02 10.5373 160.449 9.43631H160.878L160.71 11.6508H154.34V11.2527C155.112 11.2153 155.211 11.1594 155.211 10.6306V5.43038Z" fill="#FC4C02"/>
<path d="M169.698 8.28555C169.674 9.0689 169.431 9.82978 168.995 10.4813C168.725 10.9123 168.347 11.2648 167.899 11.5039C167.45 11.7429 166.947 11.8601 166.439 11.8436C165.008 11.8436 164.367 11.0412 164.367 9.92773C164.367 8.96979 165.045 6.44432 167.683 6.44432C168.572 6.42566 169.698 6.8673 169.698 8.28555ZM165.462 10.3445C165.462 11.0723 165.823 11.4517 166.451 11.4517C167.969 11.4517 168.566 8.65255 168.566 7.90611C168.566 7.28407 168.323 6.8051 167.633 6.8051C166.202 6.8051 165.462 9.21861 165.462 10.3445Z" fill="#FC4C02"/>
<path d="M170.818 6.96682L170.936 6.55628H171.906C172.051 5.85248 172.346 5.18827 172.771 4.6093C172.955 4.36458 173.195 4.16782 173.471 4.03571C173.747 3.9036 174.051 3.84004 174.357 3.85041C175.054 3.85041 175.433 4.10545 175.433 4.52843C175.417 4.65956 175.355 4.7808 175.259 4.87073C175.162 4.96066 175.036 5.01348 174.905 5.01984C174.838 5.02941 174.769 5.01541 174.711 4.98024C174.654 4.94508 174.61 4.89092 174.587 4.82701C174.332 4.32938 174.276 4.20497 173.965 4.20497C173.654 4.20497 173.486 4.49733 173.3 5.26244L172.976 6.54384H174.276L174.171 6.95438H172.926L171.962 11.0661C171.477 13.1872 170.65 14.2695 169.4 14.2695C168.777 14.2695 168.354 13.9647 168.354 13.6475C168.369 13.5018 168.434 13.3657 168.539 13.2633C168.643 13.1609 168.781 13.0987 168.927 13.0877C169.07 13.0877 169.126 13.1748 169.213 13.2805C169.505 13.7222 169.735 13.8217 169.922 13.8217C170.109 13.8217 170.364 13.5355 170.544 12.8202C170.818 11.5264 171.49 8.6401 171.844 6.97926L170.818 6.96682Z" fill="#FC4C02"/>
<path d="M72.8595 17.7841C72.5299 16.54 71.8394 16.061 71.124 16.061C70.9772 16.0505 70.8298 16.0709 70.6913 16.121C70.5529 16.1711 70.4265 16.2497 70.3203 16.3517C70.2142 16.4538 70.1307 16.577 70.0752 16.7133C70.0197 16.8497 69.9934 16.9962 69.9982 17.1434C69.9982 17.9334 70.7881 18.2195 71.6963 18.6238C72.7102 19.0592 73.7553 19.5009 73.7553 20.8943C73.7553 21.989 73.0773 23.202 70.7882 23.202C69.9444 23.2505 69.1068 23.0329 68.3933 22.58L68.2378 20.6392H68.6546C69.1086 21.9766 69.8986 22.7044 70.7633 22.7044C70.9186 22.725 71.0765 22.7109 71.2257 22.663C71.3748 22.6152 71.5115 22.5347 71.6258 22.4276C71.7401 22.3205 71.8291 22.1893 71.8865 22.0435C71.9439 21.8977 71.9682 21.741 71.9576 21.5847C71.9576 20.9627 71.6092 20.5832 70.5642 20.1478C69.2268 19.5942 68.2938 19.0904 68.2938 17.7841C68.2938 16.4778 69.0962 15.5758 71.124 15.5758C71.8662 15.56 72.6015 15.7199 73.2701 16.0424V17.7903L72.8595 17.7841Z" fill="#FC4C02"/>
<path d="M81.8293 20.6206L81.6863 22.7044C80.856 23.0672 79.9543 23.2373 79.0488 23.202C76.0257 23.202 74.9372 21.6656 74.9372 19.4698C74.876 18.4519 75.2179 17.4509 75.8889 16.6831C76.5545 15.9926 77.6244 15.5572 79.2479 15.5572C80.0884 15.5458 80.9217 15.7133 81.6925 16.0486V17.952H81.2633C80.9149 17.0936 80.6413 16.0859 79.167 16.0859C77.1267 16.0859 77.077 18.6611 77.077 19.2956C77.077 20.4775 77.3258 22.7293 79.2852 22.7293C80.5293 22.7293 80.9398 21.8024 81.3815 20.6454L81.8293 20.6206Z" fill="#FC4C02"/>
<path d="M85.6234 22.0015C85.6234 22.5364 85.7167 22.6235 86.4942 22.6235V23.0403H82.7993V22.6422C83.5706 22.6422 83.6702 22.5551 83.6702 22.0201V16.7639C83.6702 16.2414 83.5706 16.1854 82.7993 16.1419V15.7438H86.4942V16.1419C85.7167 16.1792 85.6234 16.2352 85.6234 16.7639V22.0015Z" fill="#FC4C02"/>
<path d="M88.2239 16.7639C88.2239 16.2414 88.1306 16.1854 87.353 16.1419V15.7438H93.4677V17.7156H93.0385C92.659 16.6768 92.4537 16.2352 91.3216 16.2352H90.5627C90.2517 16.2352 90.1646 16.3098 90.1646 16.6209V18.9597H91.1226C91.8006 18.9597 91.9686 18.7731 92.1427 17.9956H92.5782V20.4837H92.1427C91.9686 19.7062 91.8006 19.4698 91.1226 19.4698H90.1957V21.7962C90.1957 22.4556 90.258 22.5551 91.5207 22.5551C92.7834 22.5551 93.0322 21.9331 93.4677 20.8258H93.8907L93.6978 23.0403H87.353V22.6422C88.1306 22.6422 88.2239 22.5551 88.2239 22.0201V16.7639Z" fill="#FC4C02"/>
<path d="M100.335 23.0403C99.0408 21.1182 97.691 19.1774 96.3349 17.2367H96.2852V20.3469C96.2852 21.2488 96.2852 21.6531 96.3411 22.045C96.4158 22.7479 96.8201 22.6111 97.4421 22.6671V23.0403H94.6865V22.6422C95.3086 22.5738 95.5076 22.6422 95.5698 22.0201C95.6208 21.4556 95.6395 20.8886 95.6258 20.322V16.7701C95.6258 16.2414 95.5325 16.1854 94.7612 16.1481V15.75H97.4857C98.6302 17.4171 99.7624 18.9659 100.907 20.6081H100.957V18.4559C100.972 17.8973 100.951 17.3384 100.894 16.7826C100.838 16.0735 100.422 16.2041 99.7997 16.1605V15.7624H102.518V16.1605C101.933 16.229 101.747 16.1605 101.66 16.7826C101.622 17.162 101.61 17.5664 101.61 18.4683V23.0403H100.335Z" fill="#FC4C02"/>
<path d="M110.225 20.6206L110.101 22.7044C109.27 23.0672 108.369 23.2373 107.463 23.202C104.434 23.202 103.352 21.6656 103.352 19.4698C103.293 18.4523 103.635 17.4523 104.303 16.6831C104.975 15.9926 106.045 15.5572 107.669 15.5572C108.509 15.5464 109.342 15.7139 110.113 16.0486V17.952H109.684C109.336 17.0936 109.062 16.0859 107.582 16.0859C105.547 16.0859 105.498 18.6611 105.498 19.2956C105.498 20.4775 105.746 22.7293 107.706 22.7293C108.95 22.7293 109.361 21.8024 109.802 20.6454L110.225 20.6206Z" fill="#FC4C02"/>
<path d="M112.06 16.7639C112.06 16.2414 111.967 16.1854 111.189 16.1419V15.7438H117.31V17.7156H116.881C116.495 16.6768 116.296 16.2352 115.164 16.2352H114.399C114.088 16.2352 114.007 16.3098 114.007 16.6209V18.9597H114.959C115.637 18.9597 115.805 18.7731 115.985 17.9956H116.415V20.4837H115.985C115.805 19.7062 115.637 19.4698 114.959 19.4698H114.007V21.7962C114.007 22.4556 114.063 22.5551 115.326 22.5551C116.589 22.5551 116.844 21.9331 117.273 20.8258H117.702L117.565 23.0403H111.221V22.6422C111.998 22.6422 112.091 22.5551 112.091 22.0201L112.06 16.7639Z" fill="#FC4C02"/>
<path d="M126.535 17.2553C126.535 18.2568 125.751 18.5554 124.426 19.1214C124.96 19.9299 125.58 20.6786 126.274 21.3546C127.002 20.6481 127.445 19.6982 127.518 18.686C127.787 18.5437 128.092 18.4852 128.395 18.5181C128.472 18.6905 128.506 18.8791 128.495 19.0677C128.483 19.2563 128.425 19.4391 128.326 19.6004C127.851 20.3953 127.228 21.092 126.491 21.6531C127.018 22.2365 127.693 22.6664 128.445 22.8972L128.395 23.1647H127.848C127.066 23.1597 126.311 22.88 125.714 22.3747C125.085 22.9372 124.268 23.2435 123.425 23.2331C121.963 23.2331 121.279 22.3187 121.279 21.4043C121.279 20.1603 122.212 19.7932 123.319 19.2583C123.085 18.8608 122.951 18.4127 122.927 17.952C122.92 17.6901 122.967 17.4296 123.065 17.1866C123.163 16.9436 123.31 16.7234 123.497 16.5396C123.683 16.3558 123.906 16.2124 124.15 16.1183C124.395 16.0242 124.656 15.9814 124.918 15.9926C125.801 15.9055 126.535 16.372 126.535 17.2553ZM123.929 22.5675C124.484 22.5781 125.025 22.3882 125.453 22.0326C124.714 21.2608 124.063 20.4096 123.512 19.4947C123.171 19.6208 122.879 19.8508 122.675 20.1521C122.472 20.4535 122.369 20.8109 122.38 21.1742C122.389 21.3679 122.436 21.5579 122.519 21.7332C122.601 21.9085 122.718 22.0655 122.862 22.1952C123.007 22.3249 123.175 22.4246 123.358 22.4885C123.541 22.5524 123.735 22.5793 123.929 22.5675ZM123.854 17.529C123.864 17.9859 124.004 18.4305 124.258 18.8104C124.631 18.6957 124.961 18.4743 125.209 18.1735C125.457 17.8728 125.611 17.5059 125.652 17.1185C125.661 17.0078 125.646 16.8964 125.609 16.7919C125.571 16.6873 125.512 16.5918 125.435 16.5118C125.358 16.4318 125.265 16.3691 125.162 16.3279C125.059 16.2866 124.948 16.2677 124.837 16.2725C124.69 16.2902 124.548 16.3368 124.418 16.4096C124.289 16.4824 124.176 16.5799 124.085 16.6967C123.993 16.8134 123.926 16.947 123.886 17.0899C123.847 17.2327 123.836 17.3819 123.854 17.529Z" fill="#FC4C02"/>
<path d="M132.631 16.7639C132.631 16.2414 132.538 16.1854 131.76 16.1419V15.7438H137.881V17.7156H137.47C137.085 16.6768 136.886 16.2352 135.753 16.2352H134.982C134.671 16.2352 134.59 16.3098 134.59 16.6209V18.9597H135.542C136.22 18.9597 136.388 18.7731 136.568 17.9956H136.998V20.4837H136.568C136.388 19.7062 136.22 19.4698 135.542 19.4698H134.59V21.7962C134.59 22.4556 134.646 22.5551 135.909 22.5551C137.172 22.5551 137.427 21.9331 137.856 20.8258H138.285L138.092 23.0403H131.748V22.6422C132.525 22.6422 132.618 22.5551 132.618 22.0201L132.631 16.7639Z" fill="#FC4C02"/>
<path d="M144.748 23.0403C143.448 21.1182 142.098 19.1774 140.742 17.2367H140.693V20.3469C140.684 20.9136 140.705 21.4804 140.755 22.045C140.823 22.7479 141.234 22.6111 141.85 22.6671V23.0403H139.1V22.6422C139.691 22.5738 139.921 22.6422 139.977 22.0201C140.035 21.456 140.055 20.8888 140.039 20.322V16.7701C140.039 16.2414 139.946 16.1854 139.169 16.1481V15.75H141.899C143.044 17.4171 144.176 18.9659 145.32 20.6081H145.37V18.4559C145.387 17.8975 145.368 17.3386 145.314 16.7826C145.252 16.0735 144.835 16.2041 144.219 16.1605V15.7624H146.938V16.1605C146.353 16.229 146.16 16.1605 146.079 16.7826C146.042 17.162 146.03 17.5664 146.03 18.4683V23.0403H144.748Z" fill="#FC4C02"/>
<path d="M154.707 22.6919C153.814 23.0123 152.875 23.1846 151.927 23.202C150.993 23.254 150.061 23.0655 149.221 22.6546C148.362 22.1134 147.74 21.1866 147.74 19.4262C147.74 18.1075 148.244 15.5572 151.976 15.5572C152.871 15.537 153.76 15.7088 154.583 16.061V18.0018H154.16C153.836 17.1434 153.301 16.061 151.989 16.061C150.054 16.061 149.874 18.3004 149.874 19.2894C149.874 19.9799 149.986 22.7106 151.964 22.7106C152.162 22.7168 152.36 22.6873 152.549 22.6235C152.717 22.5675 152.735 22.4369 152.735 22.2441V20.6641C152.735 20.1478 152.654 20.0918 151.808 20.0421V19.6315H155.304V20.0421C154.8 20.0856 154.682 20.1416 154.682 20.6641L154.707 22.6919Z" fill="#FC4C02"/>
<path d="M158.856 22.0015C158.856 22.5364 158.95 22.6235 159.727 22.6235V23.0403H156.032V22.6422C156.804 22.6422 156.903 22.5551 156.903 22.0201V16.7639C156.903 16.2414 156.804 16.1854 156.032 16.1419V15.7438H159.727V16.1419C158.95 16.1792 158.856 16.2352 158.856 16.7639V22.0015Z" fill="#FC4C02"/>
<path d="M166.165 23.0403C164.865 21.1182 163.522 19.1774 162.159 17.2367H162.116V20.3469C162.106 20.9135 162.125 21.4803 162.172 22.045C162.246 22.7479 162.651 22.6111 163.267 22.6671V23.0403H160.517V22.6422C161.139 22.5738 161.338 22.6422 161.4 22.0201C161.451 21.4556 161.47 20.8886 161.456 20.322V16.7701C161.456 16.2414 161.363 16.1854 160.586 16.1481V15.75H163.316C164.461 17.4171 165.593 18.9659 166.737 20.6081H166.787V18.4559C166.803 17.8973 166.782 17.3384 166.725 16.7826C166.669 16.0735 166.252 16.2041 165.63 16.1605V15.7624H168.349V16.1605C167.764 16.229 167.571 16.1605 167.49 16.7826C167.453 17.162 167.44 17.5664 167.44 18.4683V23.0403H166.165Z" fill="#FC4C02"/>
<path d="M169.935 16.7639C169.935 16.2414 169.842 16.1854 169.064 16.1419V15.7438H175.185V17.7156H174.756C174.37 16.6768 174.171 16.2352 173.039 16.2352H172.305C171.994 16.2352 171.913 16.3098 171.913 16.6209V18.9597H172.865C173.543 18.9597 173.711 18.7731 173.891 17.9956H174.32V20.4837H173.891C173.711 19.7062 173.543 19.4698 172.865 19.4698H171.913V21.7962C171.913 22.4556 171.969 22.5551 173.232 22.5551C174.494 22.5551 174.749 21.9331 175.179 20.8258H175.608L175.415 23.0403H169.07V22.6422C169.848 22.6422 169.941 22.5551 169.941 22.0201L169.935 16.7639Z" fill="#FC4C02"/>
<path d="M177.343 16.7639C177.343 16.2414 177.243 16.1854 176.472 16.1419V15.7438H182.587V17.7156H182.158C181.778 16.6768 181.573 16.2352 180.441 16.2352H179.676C179.371 16.2352 179.284 16.3098 179.284 16.6209V18.9597H180.242C180.92 18.9597 181.088 18.7731 181.262 17.9956H181.691V20.4837H181.262C181.088 19.7062 180.92 19.4698 180.242 19.4698H179.284V21.7962C179.284 22.4556 179.346 22.5551 180.609 22.5551C181.871 22.5551 182.12 21.9331 182.549 20.8258H182.979L182.811 23.0403H176.472V22.6422C177.243 22.6422 177.343 22.5551 177.343 22.0201V16.7639Z" fill="#FC4C02"/>
<path d="M186.705 22.0015C186.705 22.5364 186.798 22.6235 187.576 22.6235V23.0403H183.875V22.6422C184.652 22.6422 184.745 22.5551 184.745 22.0201V16.7639C184.745 16.2414 184.652 16.1854 183.875 16.1419V15.7438H187.8C189.149 15.7438 190.468 15.8868 190.468 17.5352C190.468 18.5927 189.684 19.165 188.602 19.2956V19.3516C189.058 19.4201 189.48 19.6347 189.805 19.9633C190.129 20.2919 190.338 20.7168 190.4 21.1742C190.568 22.0015 190.754 22.5924 191.519 22.6235V23.0403H190.599C189.355 23.0403 188.801 22.7666 188.515 21.9704C188.376 21.4834 188.264 20.9892 188.179 20.4899C188.167 20.3657 188.13 20.2453 188.069 20.1363C188.008 20.0273 187.926 19.9321 187.826 19.8567C187.727 19.7813 187.613 19.7273 187.492 19.6982C187.37 19.6691 187.244 19.6654 187.122 19.6875H186.705V22.0015ZM186.705 19.1774H187.134C188.322 19.1774 188.478 18.4559 188.478 17.6783C188.478 16.6831 187.968 16.2414 187.265 16.2414C186.723 16.2414 186.705 16.3409 186.705 16.6271V19.1774Z" fill="#FC4C02"/>
<path d="M194.698 22.0015C194.698 22.5364 194.798 22.6235 195.569 22.6235V23.0403H191.874V22.6422C192.652 22.6422 192.745 22.5551 192.745 22.0201V16.7639C192.745 16.2414 192.652 16.1854 191.874 16.1419V15.7438H195.569V16.1419C194.798 16.1792 194.698 16.2352 194.698 16.7639V22.0015Z" fill="#FC4C02"/>
<path d="M201.988 23.0403C200.688 21.1182 199.345 19.1774 197.983 17.2367H197.939V20.3469C197.939 21.2488 197.939 21.6531 197.995 22.045C198.07 22.7479 198.474 22.6111 199.096 22.6671V23.0403H196.34V22.6422C196.962 22.5738 197.161 22.6422 197.224 22.0201C197.275 21.4556 197.293 20.8886 197.28 20.322V16.7701C197.28 16.2414 197.186 16.1854 196.409 16.1481V15.75H199.14C200.284 17.4171 201.416 18.9659 202.561 20.6081H202.61V18.4559C202.626 17.8973 202.605 17.3384 202.548 16.7826C202.492 16.0735 202.076 16.2041 201.453 16.1605V15.7624H204.172V16.1605C203.587 16.229 203.394 16.1605 203.313 16.7826C203.276 17.162 203.264 17.5664 203.264 18.4683V23.0403H201.988Z" fill="#FC4C02"/>
<path d="M211.947 22.6919C211.054 23.0123 210.115 23.1846 209.166 23.202C208.233 23.2532 207.301 23.0647 206.461 22.6546C205.602 22.1134 204.986 21.1866 204.986 19.4262C204.986 18.1075 205.484 15.5572 209.216 15.5572C210.113 15.5376 211.004 15.7094 211.829 16.061V18.0018H211.4C211.076 17.1434 210.541 16.061 209.229 16.061C207.3 16.061 207.12 18.3003 207.12 19.2894C207.12 19.9799 207.226 22.7106 209.204 22.7106C209.402 22.7168 209.6 22.6873 209.788 22.6235C209.956 22.5675 209.981 22.4369 209.981 22.2441V20.6641C209.981 20.1478 209.894 20.0918 209.048 20.0421V19.6315H212.544V20.0421C212.04 20.0856 211.922 20.1416 211.922 20.6641L211.947 22.6919Z" fill="#FC4C02"/>
<path d="M39.07 0.0248871H34.8339C34.8339 0.0248871 34.8339 12.1795 34.8339 15.1466C34.8339 18.1137 33.2851 19.5444 30.2246 19.5444C27.1642 19.5444 25.6713 18.12 25.6713 15.1466C25.6713 12.1733 25.6713 0.0248871 25.6713 0.0248871H21.373C21.373 0.0248871 21.373 12.1795 21.373 15.1466C21.373 20.5086 24.7507 23.8178 30.1935 23.8178C35.6364 23.8178 39.07 20.4277 39.07 15.1466C39.0762 12.1546 39.07 0.0248871 39.07 0.0248871Z" fill="white"/>
<path d="M9.61055 0.0248871L1.24414 23.1834H5.51754L7.05398 18.9162H15.551L17.0874 23.1834H21.3608L13.0007 0.0248871H9.61055ZM8.59663 14.6428L11.3087 7.13478L14.0208 14.6428H8.59663Z" fill="white"/>
<path d="M47.4304 0.0248871L39.064 23.1834H43.3374L44.8738 18.91H53.3833L54.9197 23.1771H59.1931L50.8267 0.0248871H47.4304ZM46.4165 14.6428L49.141 7.13478L51.8531 14.6428H46.4165Z" fill="white"/>
</g>
<defs>
<clipPath id="clip0_335_825">
<rect width="211.3" height="23.7929" fill="white" transform="translate(1.24414)"/>
</clipPath>
</defs>
</svg>
