<svg width="1323" height="641" viewBox="0 0 1323 641" fill="none" xmlns="http://www.w3.org/2000/svg">
<rect width="30" height="30" transform="matrix(0.83205 -0.5547 0.830139 0.557556 204.674 542.103)" fill="#54AD1E" stroke="#252E3A" stroke-width="3"/>
<rect width="30" height="30" transform="matrix(0.83205 -0.5547 0.830139 0.557556 179.713 558.744)" fill="#54AD1E" stroke="#252E3A" stroke-width="3"/>
<rect width="30" height="30" transform="matrix(0.83205 -0.5547 0.830139 0.557556 154.808 542.017)" fill="#54AD1E" stroke="#252E3A" stroke-width="3"/>
<rect width="30" height="30" transform="matrix(0.83205 -0.5547 0.830139 0.557556 129.904 525.291)" fill="#54AD1E" stroke="#252E3A" stroke-width="3"/>
<rect width="30" height="30" transform="matrix(0.83205 -0.5547 0.830139 0.557556 105 508.564)" fill="#54AD1E" stroke="#252E3A" stroke-width="3"/>
<rect width="30" height="30" transform="matrix(0.83205 -0.5547 0.830139 0.557556 229.636 525.462)" fill="#54AD1E" stroke="#252E3A" stroke-width="3"/>
<rect width="30" height="30" transform="matrix(0.83205 -0.5547 0.830139 0.557556 204.731 508.735)" fill="#54AD1E" stroke="#252E3A" stroke-width="3"/>
<rect width="30" height="30" transform="matrix(0.83205 -0.5547 0.830139 0.557556 229.693 492.094)" fill="#54AD1E" stroke="#252E3A" stroke-width="3"/>
<rect width="7.5" height="7.5" transform="matrix(0.83205 -0.5547 0.830139 0.557556 248.4 487.956)" fill="white" stroke="#252E3A" stroke-width="3"/>
<rect width="30" height="30" transform="matrix(0.83205 -0.5547 0.830139 0.557556 204.674 522.103)" fill="#D50E50" stroke="#252E3A" stroke-width="3"/>
<rect width="30" height="30" transform="matrix(0.83205 -0.5547 0.830139 0.557556 179.713 538.744)" fill="#D50E50" stroke="#252E3A" stroke-width="3"/>
<rect width="30" height="30" transform="matrix(0.83205 -0.5547 0.830139 0.557556 154.808 522.017)" fill="#D50E50" stroke="#252E3A" stroke-width="3"/>
<rect width="30" height="30" transform="matrix(0.83205 -0.5547 0.830139 0.557556 129.904 505.291)" fill="#D50E50" stroke="#252E3A" stroke-width="3"/>
<rect width="30" height="30" transform="matrix(0.83205 -0.5547 0.830139 0.557556 105 488.564)" fill="#D50E50" stroke="#252E3A" stroke-width="3"/>
<rect width="30" height="30" transform="matrix(0.83205 -0.5547 0.830139 0.557556 229.636 505.462)" fill="#D50E50" stroke="#252E3A" stroke-width="3"/>
<rect width="30" height="30" transform="matrix(0.83205 -0.5547 0.830139 0.557556 204.731 488.735)" fill="#D50E50" stroke="#252E3A" stroke-width="3"/>
<rect width="30" height="30" transform="matrix(0.83205 -0.5547 0.830139 0.557556 229.693 472.094)" fill="#D50E50" stroke="#252E3A" stroke-width="3"/>
<rect width="7.5" height="7.5" transform="matrix(0.83205 -0.5547 0.830139 0.557556 248.4 467.956)" fill="white" stroke="#252E3A" stroke-width="3"/>
<rect width="30" height="30" transform="matrix(0.83205 -0.5547 0.830139 0.557556 1222.67 161.103)" fill="#93268F" stroke="#252E3A" stroke-width="3"/>
<rect width="30" height="30" transform="matrix(0.83205 -0.5547 0.830139 0.557556 1197.71 177.744)" fill="#93268F" stroke="#252E3A" stroke-width="3"/>
<rect width="30" height="30" transform="matrix(0.83205 -0.5547 0.830139 0.557556 1172.81 161.017)" fill="#93268F" stroke="#252E3A" stroke-width="3"/>
<rect width="30" height="30" transform="matrix(0.83205 -0.5547 0.830139 0.557556 1147.9 144.291)" fill="#93268F" stroke="#252E3A" stroke-width="3"/>
<rect width="30" height="30" transform="matrix(0.83205 -0.5547 0.830139 0.557556 1123 127.564)" fill="#93268F" stroke="#252E3A" stroke-width="3"/>
<rect width="30" height="30" transform="matrix(0.83205 -0.5547 0.830139 0.557556 1247.64 144.462)" fill="#93268F" stroke="#252E3A" stroke-width="3"/>
<rect width="30" height="30" transform="matrix(0.83205 -0.5547 0.830139 0.557556 1222.73 127.735)" fill="#93268F" stroke="#252E3A" stroke-width="3"/>
<rect width="30" height="30" transform="matrix(0.83205 -0.5547 0.830139 0.557556 1247.69 111.094)" fill="#93268F" stroke="#252E3A" stroke-width="3"/>
<rect width="7.5" height="7.5" transform="matrix(0.83205 -0.5547 0.830139 0.557556 1266.4 106.956)" fill="white" stroke="#252E3A" stroke-width="3"/>
<rect width="30" height="30" transform="matrix(0.83205 -0.5547 0.830139 0.557556 1222.67 141.103)" fill="#FBAD18" stroke="#252E3A" stroke-width="3"/>
<rect width="30" height="30" transform="matrix(0.83205 -0.5547 0.830139 0.557556 1197.71 157.744)" fill="#FBAD18" stroke="#252E3A" stroke-width="3"/>
<rect width="30" height="30" transform="matrix(0.83205 -0.5547 0.830139 0.557556 1172.81 141.017)" fill="#FBAD18" stroke="#252E3A" stroke-width="3"/>
<rect width="30" height="30" transform="matrix(0.83205 -0.5547 0.830139 0.557556 1147.9 124.291)" fill="#FBAD18" stroke="#252E3A" stroke-width="3"/>
<rect width="30" height="30" transform="matrix(0.83205 -0.5547 0.830139 0.557556 1123 107.564)" fill="#FBAD18" stroke="#252E3A" stroke-width="3"/>
<rect width="30" height="30" transform="matrix(0.83205 -0.5547 0.830139 0.557556 1247.64 124.462)" fill="#FBAD18" stroke="#252E3A" stroke-width="3"/>
<rect width="30" height="30" transform="matrix(0.83205 -0.5547 0.830139 0.557556 1222.73 107.735)" fill="#FBAD18" stroke="#252E3A" stroke-width="3"/>
<rect width="30" height="30" transform="matrix(0.83205 -0.5547 0.830139 0.557556 1247.69 91.0944)" fill="#FBAD18" stroke="#252E3A" stroke-width="3"/>
<rect width="7.5" height="7.5" transform="matrix(0.83205 -0.5547 0.830139 0.557556 1266.4 86.9556)" fill="white" stroke="#252E3A" stroke-width="3"/>
<rect width="30" height="30" transform="matrix(-0.866025 0.5 -0.792534 -0.609827 101.718 186.295)" fill="#FBAD18" stroke="#252E3A" stroke-width="3"/>
<rect width="30" height="30" transform="matrix(-0.866025 0.5 -0.792534 -0.609827 75.7375 201.295)" fill="#FBAD18" stroke="#252E3A" stroke-width="3"/>
<rect width="30" height="30" transform="matrix(-0.866025 0.5 -0.792534 -0.609827 99.5135 219.59)" fill="#FBAD18" stroke="#252E3A" stroke-width="3"/>
<rect width="30" height="30" transform="matrix(-0.866025 0.5 -0.792534 -0.609827 73.5327 234.59)" fill="#FBAD18" stroke="#252E3A" stroke-width="3"/>
<rect width="7.5" height="7.5" transform="matrix(-0.866025 0.5 -0.792534 -0.609827 54.5983 237.516)" fill="white" stroke="#252E3A" stroke-width="3"/>
<rect width="30" height="30" transform="matrix(-0.866025 0.5 -0.792534 -0.609827 101.718 166.295)" fill="#54AD1E" stroke="#252E3A" stroke-width="3"/>
<rect width="30" height="30" transform="matrix(-0.866025 0.5 -0.792534 -0.609827 75.7375 181.295)" fill="#54AD1E" stroke="#252E3A" stroke-width="3"/>
<rect width="30" height="30" transform="matrix(-0.866025 0.5 -0.792534 -0.609827 99.5135 199.59)" fill="#54AD1E" stroke="#252E3A" stroke-width="3"/>
<rect width="30" height="30" transform="matrix(-0.866025 0.5 -0.792534 -0.609827 73.5327 214.59)" fill="#54AD1E" stroke="#252E3A" stroke-width="3"/>
<rect width="7.5" height="7.5" transform="matrix(-0.866025 0.5 -0.792534 -0.609827 54.5983 217.516)" fill="white" stroke="#252E3A" stroke-width="3"/>
<rect width="30" height="30" transform="matrix(0.83205 -0.5547 0.830139 0.557556 1172.9 438.291)" fill="#20A6C1" stroke="#252E3A" stroke-width="3"/>
<rect width="30" height="30" transform="matrix(0.83205 -0.5547 0.830139 0.557556 1198 454.641)" fill="#20A6C1" stroke="#252E3A" stroke-width="3"/>
<rect width="30" height="30" transform="matrix(0.83205 -0.5547 0.830139 0.557556 1173 471.641)" fill="#20A6C1" stroke="#252E3A" stroke-width="3"/>
<rect width="30" height="30" transform="matrix(0.83205 -0.5547 0.830139 0.557556 1197.87 421.65)" fill="#20A6C1" stroke="#252E3A" stroke-width="3"/>
<rect width="30" height="30" transform="matrix(0.83205 -0.5547 0.830139 0.557556 1222.83 405.009)" fill="#20A6C1" stroke="#252E3A" stroke-width="3"/>
<rect width="30" height="30" transform="matrix(0.83205 -0.5547 0.830139 0.557556 1197.92 388.282)" fill="#20A6C1" stroke="#252E3A" stroke-width="3"/>
<rect width="30" height="30" transform="matrix(0.83205 -0.5547 0.830139 0.557556 1222.88 371.641)" fill="#20A6C1" stroke="#252E3A" stroke-width="3"/>
<rect width="7.5" height="7.5" transform="matrix(0.83205 -0.5547 0.830139 0.557556 1241.59 367.502)" fill="white" stroke="#252E3A" stroke-width="3"/>
<rect width="30" height="30" transform="matrix(0.83205 -0.5547 0.830139 0.557556 304.776 130.291)" fill="#CA1757" stroke="#252E3A" stroke-width="3"/>
<rect width="30" height="30" transform="matrix(0.83205 -0.5547 0.830139 0.557556 329.872 146.641)" fill="#CA1757" stroke="#252E3A" stroke-width="3"/>
<rect width="30" height="30" transform="matrix(0.83205 -0.5547 0.830139 0.557556 304.872 163.641)" fill="#CA1757" stroke="#252E3A" stroke-width="3"/>
<rect width="30" height="30" transform="matrix(0.83205 -0.5547 0.830139 0.557556 329.737 113.65)" fill="#CA1757" stroke="#252E3A" stroke-width="3"/>
<rect width="30" height="30" transform="matrix(0.83205 -0.5547 0.830139 0.557556 354.699 97.0086)" fill="#CA1757" stroke="#252E3A" stroke-width="3"/>
<rect width="30" height="30" transform="matrix(0.83205 -0.5547 0.830139 0.557556 329.795 80.2819)" fill="#CA1757" stroke="#252E3A" stroke-width="3"/>
<rect width="30" height="30" transform="matrix(0.83205 -0.5547 0.830139 0.557556 305 63.6409)" fill="#CA1757" stroke="#252E3A" stroke-width="3"/>
<rect width="7.5" height="7.5" transform="matrix(0.83205 -0.5547 0.830139 0.557556 323.707 59.5021)" fill="white" stroke="#252E3A" stroke-width="3"/>
<rect width="30" height="30" transform="matrix(0.83205 -0.5547 0.830139 0.557556 1172.9 418.291)" fill="#D50E50" stroke="#252E3A" stroke-width="3"/>
<rect width="30" height="30" transform="matrix(0.83205 -0.5547 0.830139 0.557556 1198 434.641)" fill="#D50E50" stroke="#252E3A" stroke-width="3"/>
<rect width="30" height="30" transform="matrix(0.83205 -0.5547 0.830139 0.557556 1173 451.641)" fill="#D50E50" stroke="#252E3A" stroke-width="3"/>
<rect width="30" height="30" transform="matrix(0.83205 -0.5547 0.830139 0.557556 1197.87 401.65)" fill="#D50E50" stroke="#252E3A" stroke-width="3"/>
<rect width="30" height="30" transform="matrix(0.83205 -0.5547 0.830139 0.557556 1222.83 385.009)" fill="#D50E50" stroke="#252E3A" stroke-width="3"/>
<rect width="30" height="30" transform="matrix(0.83205 -0.5547 0.830139 0.557556 1197.92 368.282)" fill="#D50E50" stroke="#252E3A" stroke-width="3"/>
<rect width="30" height="30" transform="matrix(0.83205 -0.5547 0.830139 0.557556 1222.88 351.641)" fill="#D50E50" stroke="#252E3A" stroke-width="3"/>
<rect width="7.5" height="7.5" transform="matrix(0.83205 -0.5547 0.830139 0.557556 1241.59 347.502)" fill="white" stroke="#252E3A" stroke-width="3"/>
<rect width="30" height="30" transform="matrix(0.83205 -0.5547 0.830139 0.557556 304.776 110.291)" fill="#E7AD28" stroke="#252E3A" stroke-width="3"/>
<rect width="30" height="30" transform="matrix(0.83205 -0.5547 0.830139 0.557556 329.872 126.641)" fill="#E7AD28" stroke="#252E3A" stroke-width="3"/>
<rect width="30" height="30" transform="matrix(0.83205 -0.5547 0.830139 0.557556 304.872 143.641)" fill="#E7AD28" stroke="#252E3A" stroke-width="3"/>
<rect width="30" height="30" transform="matrix(0.83205 -0.5547 0.830139 0.557556 329.737 93.6497)" fill="#E7AD28" stroke="#252E3A" stroke-width="3"/>
<rect width="30" height="30" transform="matrix(0.83205 -0.5547 0.830139 0.557556 354.699 77.0087)" fill="#E7AD28" stroke="#252E3A" stroke-width="3"/>
<rect width="30" height="30" transform="matrix(0.83205 -0.5547 0.830139 0.557556 329.795 60.282)" fill="#E7AD28" stroke="#252E3A" stroke-width="3"/>
<rect width="30" height="30" transform="matrix(0.83205 -0.5547 0.830139 0.557556 305 43.641)" fill="#E7AD28" stroke="#252E3A" stroke-width="3"/>
<rect width="7.5" height="7.5" transform="matrix(0.83205 -0.5547 0.830139 0.557556 323.707 39.5022)" fill="white" stroke="#252E3A" stroke-width="3"/>
<rect width="30" height="30" transform="matrix(-0.83205 0.5547 -0.830139 -0.557556 967.75 498.727)" fill="#F7AD1C" stroke="#252E3A" stroke-width="3"/>
<rect width="30" height="30" transform="matrix(-0.83205 0.5547 -0.830139 -0.557556 942.788 515.368)" fill="#F7AD1C" stroke="#252E3A" stroke-width="3"/>
<rect width="30" height="30" transform="matrix(-0.83205 0.5547 -0.830139 -0.557556 917.827 532.009)" fill="#F7AD1C" stroke="#252E3A" stroke-width="3"/>
<rect width="30" height="30" transform="matrix(-0.83205 0.5547 -0.830139 -0.557556 942.731 548.735)" fill="#F7AD1C" stroke="#252E3A" stroke-width="3"/>
<rect width="30" height="30" transform="matrix(-0.83205 0.5547 -0.830139 -0.557556 917.77 565.376)" fill="#F7AD1C" stroke="#252E3A" stroke-width="3"/>
<rect width="7.5" height="7.5" transform="matrix(-0.83205 0.5547 -0.830139 -0.557556 899.063 569.515)" fill="white" stroke="#252E3A" stroke-width="3"/>
<rect width="30" height="30" transform="matrix(-0.83205 0.5547 -0.830139 -0.557556 967.75 478.727)" fill="#20A6C1" stroke="#252E3A" stroke-width="3"/>
<rect width="30" height="30" transform="matrix(-0.83205 0.5547 -0.830139 -0.557556 942.788 495.368)" fill="#20A6C1" stroke="#252E3A" stroke-width="3"/>
<rect width="30" height="30" transform="matrix(-0.83205 0.5547 -0.830139 -0.557556 917.827 512.009)" fill="#20A6C1" stroke="#252E3A" stroke-width="3"/>
<rect width="30" height="30" transform="matrix(-0.83205 0.5547 -0.830139 -0.557556 942.731 528.735)" fill="#20A6C1" stroke="#252E3A" stroke-width="3"/>
<rect width="30" height="30" transform="matrix(-0.83205 0.5547 -0.830139 -0.557556 917.77 545.376)" fill="#20A6C1" stroke="#252E3A" stroke-width="3"/>
<rect width="7.5" height="7.5" transform="matrix(-0.83205 0.5547 -0.830139 -0.557556 899.063 549.515)" fill="white" stroke="#252E3A" stroke-width="3"/>
<rect width="30" height="30" transform="matrix(0.83205 -0.5547 0.830139 0.557556 535.904 621.65)" fill="#20A6C1" stroke="#252E3A" stroke-width="3"/>
<rect width="30" height="30" transform="matrix(0.83205 -0.5547 0.830139 0.557556 561.038 604.641)" fill="#20A6C1" stroke="#252E3A" stroke-width="3"/>
<rect width="30" height="30" transform="matrix(0.83205 -0.5547 0.830139 0.557556 535.962 588.282)" fill="#20A6C1" stroke="#252E3A" stroke-width="3"/>
<rect width="30" height="30" transform="matrix(0.83205 -0.5547 0.830139 0.557556 560.923 571.641)" fill="#20A6C1" stroke="#252E3A" stroke-width="3"/>
<rect width="7.5" height="7.5" transform="matrix(0.83205 -0.5547 0.830139 0.557556 579.63 567.502)" fill="white" stroke="#252E3A" stroke-width="3"/>
<rect width="30" height="30" transform="matrix(0.83205 -0.5547 0.830139 0.557556 535.904 601.65)" fill="#93268F" stroke="#252E3A" stroke-width="3"/>
<rect width="30" height="30" transform="matrix(0.83205 -0.5547 0.830139 0.557556 560.866 585.009)" fill="#93268F" stroke="#252E3A" stroke-width="3"/>
<rect width="30" height="30" transform="matrix(0.83205 -0.5547 0.830139 0.557556 535.962 568.282)" fill="#93268F" stroke="#252E3A" stroke-width="3"/>
<rect width="30" height="30" transform="matrix(0.83205 -0.5547 0.830139 0.557556 560.923 551.641)" fill="#93268F" stroke="#252E3A" stroke-width="3"/>
<rect width="7.5" height="7.5" transform="matrix(0.83205 -0.5547 0.830139 0.557556 579.63 547.502)" fill="white" stroke="#252E3A" stroke-width="3"/>
<rect width="30" height="30" transform="matrix(0.83205 -0.5547 0.830139 0.557556 762.731 103.376)" fill="#93268F" stroke="#252E3A" stroke-width="3"/>
<rect width="30" height="30" transform="matrix(0.83205 -0.5547 0.830139 0.557556 687.961 86.564)" fill="#93268F" stroke="#252E3A" stroke-width="3"/>
<rect width="30" height="30" transform="matrix(0.83205 -0.5547 0.830139 0.557556 662.999 103.205)" fill="#93268F" stroke="#252E3A" stroke-width="3"/>
<rect width="30" height="30" transform="matrix(0.83205 -0.5547 0.830139 0.557556 687.903 119.932)" fill="#93268F" stroke="#252E3A" stroke-width="3"/>
<rect width="30" height="30" transform="matrix(0.83205 -0.5547 0.830139 0.557556 712.922 69.923)" fill="#93268F" stroke="#252E3A" stroke-width="3"/>
<rect width="30" height="30" transform="matrix(0.83205 -0.5547 0.830139 0.557556 737.826 86.6497)" fill="#93268F" stroke="#252E3A" stroke-width="3"/>
<rect width="30" height="30" transform="matrix(0.83205 -0.5547 0.830139 0.557556 787.692 86.7354)" fill="#93268F" stroke="#252E3A" stroke-width="3"/>
<rect width="30" height="30" transform="matrix(0.83205 -0.5547 0.830139 0.557556 812.654 70.0944)" fill="#93268F" stroke="#252E3A" stroke-width="3"/>
<rect width="30" height="30" transform="matrix(0.83205 -0.5547 0.830139 0.557556 787.749 53.3677)" fill="#93268F" stroke="#252E3A" stroke-width="3"/>
<rect width="7.5" height="7.5" transform="matrix(0.83205 -0.5547 0.830139 0.557556 806.456 49.2289)" fill="white" stroke="#252E3A" stroke-width="3"/>
<rect width="30" height="30" transform="matrix(0.83205 -0.5547 0.830139 0.557556 762.731 83.3764)" fill="#54AD1E" stroke="#252E3A" stroke-width="3"/>
<rect width="30" height="30" transform="matrix(0.83205 -0.5547 0.830139 0.557556 687.961 66.564)" fill="#54AD1E" stroke="#252E3A" stroke-width="3"/>
<rect width="30" height="30" transform="matrix(0.83205 -0.5547 0.830139 0.557556 662.999 83.205)" fill="#54AD1E" stroke="#252E3A" stroke-width="3"/>
<rect width="30" height="30" transform="matrix(0.83205 -0.5547 0.830139 0.557556 687.903 99.9317)" fill="#54AD1E" stroke="#252E3A" stroke-width="3"/>
<rect width="30" height="30" transform="matrix(0.83205 -0.5547 0.830139 0.557556 712.922 49.923)" fill="#54AD1E" stroke="#252E3A" stroke-width="3"/>
<rect width="30" height="30" transform="matrix(0.83205 -0.5547 0.830139 0.557556 737.826 66.6497)" fill="#54AD1E" stroke="#252E3A" stroke-width="3"/>
<rect width="30" height="30" transform="matrix(0.83205 -0.5547 0.830139 0.557556 787.692 66.7354)" fill="#54AD1E" stroke="#252E3A" stroke-width="3"/>
<rect width="30" height="30" transform="matrix(0.83205 -0.5547 0.830139 0.557556 812.654 50.0944)" fill="#54AD1E" stroke="#252E3A" stroke-width="3"/>
<rect width="30" height="30" transform="matrix(0.83205 -0.5547 0.830139 0.557556 787.749 33.3677)" fill="#54AD1E" stroke="#252E3A" stroke-width="3"/>
<rect width="7.5" height="7.5" transform="matrix(0.83205 -0.5547 0.830139 0.557556 806.456 29.2289)" fill="white" stroke="#252E3A" stroke-width="3"/>
</svg>
